<?xml version="1.0" standalone="no"?>
<!DOCTYPE svg PUBLIC "-//W3C//DTD SVG 1.1//EN" "http://www.w3.org/Graphics/SVG/1.1/DTD/svg11.dtd" >
<svg xmlns="http://www.w3.org/2000/svg" xmlns:xlink="http://www.w3.org/1999/xlink" version="1.1">
<metadata>
Created by FontForge 20170910 at Mon Mar  7 17:19:36 2011
 By Jimmy Wärting
Copyright (c) 2011 by Ryoichi Tsunekawa. All rights reserved.
</metadata>
<defs>
<font id="DharmaGothicE-ExBold" horiz-adv-x="358" >
  <font-face 
    font-family="Dharma Gothic E ExBold"
    font-weight="800"
    font-stretch="normal"
    units-per-em="1000"
    panose-1="4 5 7 4 2 11 2 2 2 2"
    ascent="800"
    descent="-200"
    x-height="552"
    cap-height="700"
    bbox="-46 -218 1000 863"
    underline-thickness="32"
    underline-position="-80"
    stemh="132"
    stemv="126"
    unicode-range="U+0020-FB02"
  />
<missing-glyph horiz-adv-x="395" 
d="M369 0h-343v700h343v-700zM57 31h282v638h-282v-638z" />
    <glyph glyph-name="fi" unicode="fi" horiz-adv-x="380" 
d="M4 447v105h30v12c0 105 27 136 125 136h47v-98h-20c-20 0 -28 -6 -28 -35v-15h48v-105h-46v-447h-126v447h-30zM357 552v-552h-126v552h126zM231 596v104h126v-104h-126z" />
    <glyph glyph-name="fl" unicode="fl" horiz-adv-x="380" 
d="M4 447v105h30v12c0 105 27 136 125 136h47v-98h-20c-20 0 -28 -6 -28 -35v-15h48v-105h-46v-447h-126v447h-30zM357 0h-126v700h126v-700z" />
    <glyph glyph-name=".notdef" horiz-adv-x="395" 
d="M369 0h-343v700h343v-700zM57 31h282v638h-282v-638z" />
    <glyph glyph-name="space" unicode=" " horiz-adv-x="137" 
 />
    <glyph glyph-name="exclam" unicode="!" horiz-adv-x="184" 
d="M162 484l-22 -291h-96l-22 291v216h140v-216zM21 0v156h142v-156h-142z" />
    <glyph glyph-name="quotedbl" unicode="&#x22;" horiz-adv-x="322" 
d="M311 620l-17 -156h-99l-17 156v80h133v-80zM145 620l-17 -156h-99l-17 156v80h133v-80z" />
    <glyph glyph-name="numbersign" unicode="#" 
d="M336 700l-9 -116h29l-8 -117h-29l-15 -210h30l-8 -117h-30l-9 -140h-109l9 140h-49l-9 -140h-109l9 140h-27l7 117h28l15 210h-29l9 117h28l9 116h109l-9 -116h50l8 116h109zM161 467l-15 -210h49l15 210h-49z" />
    <glyph glyph-name="dollar" unicode="$" 
d="M231 -25h-105v46c-81 6 -102 41 -102 143v98h123v-81c0 -27 2 -37 25 -37h8c22 0 25 10 25 37v18c0 38 -4 54 -74 106c-90 68 -107 106 -107 181v50c0 101 23 137 102 143v46h105v-46c81 -5 104 -41 104 -143v-85h-123v68c0 27 -2 37 -25 37h-8c-22 0 -25 -10 -25 -37
v-19c0 -38 4 -53 74 -105c91 -68 107 -106 107 -182v-49c0 -103 -23 -138 -104 -144v-45z" />
    <glyph glyph-name="percent" unicode="%" horiz-adv-x="607" 
d="M161 0l251 700h34l-251 -700h-34zM354 101v243c0 82 22 106 97 106h43c73 0 97 -24 97 -106v-243c0 -82 -24 -106 -97 -106h-43c-75 0 -97 24 -97 106zM448 329v-212c0 -24 2 -32 21 -32h6c19 0 22 8 22 32v212c0 23 -3 32 -22 32h-6c-19 0 -21 -9 -21 -32zM17 356v243
c0 82 22 106 97 106h43c73 0 97 -24 97 -106v-243c0 -82 -24 -106 -97 -106h-43c-75 0 -97 24 -97 106zM111 584v-212c0 -24 2 -32 21 -32h6c19 0 22 8 22 32v212c0 23 -3 32 -22 32h-6c-19 0 -21 -9 -21 -32z" />
    <glyph glyph-name="ampersand" unicode="&#x26;" horiz-adv-x="389" 
d="M235 0c-9 16 -13 42 -14 71c-10 -48 -35 -76 -93 -76h-26c-67 0 -85 32 -85 113v107c0 91 15 133 73 148c-58 15 -73 56 -73 148v34c0 120 28 155 139 155h95v-132h-68c-23 0 -27 -10 -27 -40v-60c0 -30 4 -40 27 -40h34v75h126v-75h44v-130h-44v-172
c0 -47 4 -89 19 -126h-127zM156 258v-93c0 -28 4 -39 25 -39h9c20 0 27 14 27 44v128h-34c-23 0 -27 -10 -27 -40z" />
    <glyph glyph-name="quotesingle" unicode="'" horiz-adv-x="179" 
d="M156 620l-17 -156h-99l-17 156v80h133v-80z" />
    <glyph glyph-name="parenleft" unicode="(" horiz-adv-x="220" 
d="M21 68v504c0 107 26 138 124 138h61v-106h-37c-20 0 -23 -10 -23 -36v-496c0 -26 3 -36 23 -36h37v-106h-61c-98 0 -124 31 -124 138z" />
    <glyph glyph-name="parenright" unicode=")" horiz-adv-x="220" 
d="M199 572v-504c0 -107 -26 -138 -124 -138h-61v106h37c20 0 23 10 23 36v496c0 26 -3 36 -23 36h-37v106h61c98 0 124 -31 124 -138z" />
    <glyph glyph-name="asterisk" unicode="*" horiz-adv-x="356" 
d="M2 488l118 40l-118 40l54 92l91 -82l-23 122h108l-25 -122l92 82l55 -92l-119 -40l119 -40l-55 -93l-91 81l24 -121h-108l23 121l-91 -81z" />
    <glyph glyph-name="plus" unicode="+" 
d="M125 529h107v-123h106v-112h-106v-123h-107v123h-105v112h105v123z" />
    <glyph glyph-name="comma" unicode="," horiz-adv-x="179" 
d="M18 0v171h142v-171l-124 -102l-7 7l79 95h-90z" />
    <glyph glyph-name="hyphen" unicode="-" horiz-adv-x="239" 
d="M224 316v-95h-208v95h208z" />
    <glyph glyph-name="period" unicode="." horiz-adv-x="179" 
d="M18 0v171h142v-171h-142z" />
    <glyph glyph-name="slash" unicode="/" 
d="M-6 -20l246 740h124l-246 -740h-124z" />
    <glyph glyph-name="zero" unicode="0" 
d="M338 561v-422c0 -112 -27 -144 -128 -144h-62c-102 0 -128 32 -128 144v422c0 112 26 144 128 144h62c101 0 128 -32 128 -144zM150 545v-390c0 -27 3 -37 25 -37h8c23 0 25 10 25 37v390c0 27 -2 37 -25 37h-8c-22 0 -25 -10 -25 -37z" />
    <glyph glyph-name="one" unicode="1" horiz-adv-x="184" 
d="M159 0h-130v635c31 0 69 37 69 65h61v-700z" />
    <glyph glyph-name="two" unicode="2" horiz-adv-x="352" 
d="M208 533v12c0 27 -2 37 -25 37h-8c-22 0 -25 -10 -25 -37v-94h-123v110c0 112 26 144 129 144h54c102 0 128 -32 128 -144v-36c0 -107 -28 -149 -111 -243c-55 -62 -79 -94 -83 -160h192v-122h-322v112c0 107 28 149 112 242c60 68 82 100 82 179z" />
    <glyph glyph-name="three" unicode="3" horiz-adv-x="344" 
d="M139 545v-70h-122v86c0 112 26 144 128 144h54c101 0 129 -32 129 -144v-58c0 -81 -15 -120 -62 -135c47 -16 62 -55 62 -135v-94c0 -112 -28 -144 -129 -144h-54c-102 0 -128 32 -128 144v122h122v-106c0 -27 3 -37 25 -37h9c22 0 25 10 25 37v115c0 27 -3 36 -25 36
h-100v124h100c22 0 25 10 25 36v79c0 27 -3 37 -25 37h-9c-22 0 -25 -10 -25 -37z" />
    <glyph glyph-name="four" unicode="4" horiz-adv-x="344" 
d="M162 700h138v-481h43v-109h-43v-110h-130v110h-166v98zM114 219h56v80c0 60 4 126 10 199c-15 -72 -24 -126 -44 -199z" />
    <glyph glyph-name="five" unicode="5" horiz-adv-x="346" 
d="M142 364v-58h-122v394h295v-122h-173v-114c10 39 34 62 85 62h25c63 0 79 -31 79 -108v-279c0 -112 -28 -144 -129 -144h-54c-102 0 -128 32 -128 144v122h122v-106c0 -27 3 -37 25 -37h9c22 0 25 10 25 37v214c0 26 -3 36 -24 36h-8c-21 0 -27 -14 -27 -41z" />
    <glyph glyph-name="six" unicode="6" horiz-adv-x="355" 
d="M338 353v-214c0 -112 -26 -144 -128 -144h-62c-102 0 -128 32 -128 144v422c0 112 27 144 128 144h54c103 0 129 -32 129 -144v-69h-123v53c0 27 -2 37 -25 37h-8c-22 0 -25 -10 -25 -37v-145c11 38 35 60 84 60h26c63 0 78 -30 78 -107zM208 155v147c0 26 -2 37 -23 37
h-8c-21 0 -27 -14 -27 -42v-142c0 -27 3 -37 25 -37h8c23 0 25 10 25 37z" />
    <glyph glyph-name="seven" unicode="7" horiz-adv-x="325" 
d="M181 0h-144l166 578h-201v122h321v-110z" />
    <glyph glyph-name="eight" unicode="8" horiz-adv-x="352" 
d="M207 -5h-62c-101 0 -128 32 -128 144v96c0 80 13 120 60 135c-47 16 -60 55 -60 136v55c0 112 27 144 128 144h62c101 0 128 -32 128 -144v-55c0 -81 -14 -120 -61 -136c47 -15 61 -55 61 -135v-96c0 -112 -27 -144 -128 -144zM205 155v118c0 27 -3 36 -25 36h-8
c-23 0 -25 -9 -25 -36v-118c0 -27 2 -37 25 -37h8c22 0 25 10 25 37zM205 469v76c0 27 -3 37 -25 37h-8c-23 0 -25 -10 -25 -37v-76c0 -26 2 -36 25 -36h8c22 0 25 10 25 36z" />
    <glyph glyph-name="nine" unicode="9" horiz-adv-x="355" 
d="M180 118c22 0 25 10 25 37v155c-11 -38 -35 -60 -84 -60h-26c-63 0 -78 30 -78 107v204c0 112 26 144 128 144h62c102 0 128 -32 128 -144v-422c0 -112 -27 -144 -128 -144h-54c-103 0 -129 32 -129 144v79h123v-63c0 -27 2 -37 25 -37h8zM147 545v-137
c0 -26 2 -37 23 -37h8c21 0 27 14 27 42v132c0 27 -3 37 -25 37h-8c-23 0 -25 -10 -25 -37z" />
    <glyph glyph-name="colon" unicode=":" horiz-adv-x="179" 
d="M18 365v171h142v-171h-142zM18 0v171h142v-171h-142z" />
    <glyph glyph-name="semicolon" unicode=";" horiz-adv-x="179" 
d="M18 0v171h142v-171l-124 -102l-7 7l79 95h-90zM18 365v171h142v-171h-142z" />
    <glyph glyph-name="less" unicode="&#x3c;" 
d="M163 350l175 -170h-145l-173 170l173 170h145z" />
    <glyph glyph-name="equal" unicode="=" 
d="M338 501v-112h-318v112h318zM338 312v-113h-318v113h318z" />
    <glyph glyph-name="greater" unicode="&#x3e;" 
d="M20 180l175 170l-175 170h145l173 -170l-173 -170h-145z" />
    <glyph glyph-name="question" unicode="?" horiz-adv-x="337" 
d="M86 0v165h139v-165h-139zM194 530v15c0 27 -3 37 -25 37h-9c-22 0 -24 -10 -24 -37v-94h-123v110c0 112 26 144 128 144h55c101 0 128 -32 128 -144v-46c0 -158 -112 -155 -112 -272v-35h-113v33c0 160 95 150 95 289z" />
    <glyph glyph-name="at" unicode="@" horiz-adv-x="562" 
d="M406 502l-34 -349c-1 -13 3 -28 22 -28h2c39 0 77 39 77 202v67c0 135 -46 203 -179 203h-5c-126 0 -189 -53 -189 -240v-130c0 -199 96 -238 227 -238c50 0 85 3 113 12v-69c-30 -7 -63 -10 -114 -10c-186 0 -307 87 -307 313v122c0 213 95 310 270 310h5
c177 0 249 -109 249 -273v-82c0 -204 -76 -240 -154 -240h-6c-40 0 -60 15 -69 37c-11 -24 -36 -37 -72 -37h-19c-44 0 -68 20 -61 83l26 275c6 58 26 77 66 77h19c32 0 50 -14 56 -34l14 29h63zM292 156l26 270c1 15 -5 22 -20 22h-8c-15 0 -20 -7 -21 -20l-26 -277
c-1 -13 1 -20 16 -20h5c16 0 26 5 28 25z" />
    <glyph glyph-name="A" unicode="A" horiz-adv-x="375" 
d="M230 0l-11 91h-79l-10 -91h-126l87 700h193l86 -700h-140zM179 597c-6 -111 -15 -235 -27 -382h54c-12 147 -21 271 -27 382z" />
    <glyph glyph-name="B" unicode="B" horiz-adv-x="384" 
d="M23 0v700h204c111 0 139 -35 139 -155v-35c0 -85 -14 -126 -62 -143c48 -16 62 -57 62 -142v-70c0 -120 -28 -155 -139 -155h-204zM200 302h-37v-170h37c23 0 26 10 26 40v90c0 30 -3 40 -26 40zM226 473v55c0 30 -3 40 -26 40h-37v-134h37c23 0 26 10 26 39z" />
    <glyph glyph-name="C" unicode="C" horiz-adv-x="377" 
d="M161 533v-366c0 -30 3 -40 27 -40h10c24 0 27 10 27 40v132h131v-149c0 -120 -28 -155 -138 -155h-58c-110 0 -139 35 -139 155v400c0 120 29 155 139 155h58c110 0 138 -35 138 -155v-119h-131v102c0 30 -3 40 -27 40h-10c-24 0 -27 -10 -27 -40z" />
    <glyph glyph-name="D" unicode="D" horiz-adv-x="391" 
d="M26 0v700h205c110 0 138 -35 138 -155v-390c0 -120 -28 -155 -138 -155h-205zM166 132h37c23 0 26 10 26 40v356c0 30 -3 40 -26 40h-37v-436z" />
    <glyph glyph-name="E" unicode="E" horiz-adv-x="302" 
d="M166 568v-138h96v-132h-96v-166h122v-132h-262v700h262v-132h-122z" />
    <glyph glyph-name="F" unicode="F" horiz-adv-x="285" 
d="M166 568v-148h90v-132h-90v-288h-140v700h256v-132h-116z" />
    <glyph glyph-name="G" unicode="G" horiz-adv-x="378" 
d="M193 276v132h163v-258c0 -120 -28 -155 -138 -155h-58c-110 0 -139 35 -139 155v400c0 120 29 155 139 155h58c110 0 138 -35 138 -155v-95h-131v78c0 30 -3 40 -27 40h-10c-24 0 -27 -10 -27 -40v-366c0 -30 3 -40 27 -40h10c24 0 27 10 27 40v109h-32z" />
    <glyph glyph-name="H" unicode="H" horiz-adv-x="395" 
d="M166 0h-140v700h140v-270h63v270h140v-700h-140v298h-63v-298z" />
    <glyph glyph-name="I" unicode="I" horiz-adv-x="192" 
d="M26 0v700h140v-700h-140z" />
    <glyph glyph-name="J" unicode="J" horiz-adv-x="367" 
d="M140 299v-132c0 -30 3 -40 27 -40h10c23 0 27 10 27 40v533h139v-550c0 -120 -28 -155 -138 -155h-58c-110 0 -139 35 -139 155v149h132z" />
    <glyph glyph-name="K" unicode="K" horiz-adv-x="401" 
d="M26 0v700h140v-302c6 24 9 36 14 53l79 249h137l-111 -328l115 -372h-147l-71 247c-6 20 -11 40 -16 66v-313h-140z" />
    <glyph glyph-name="L" unicode="L" horiz-adv-x="271" 
d="M26 0v700h140v-568h103v-132h-243z" />
    <glyph glyph-name="M" unicode="M" horiz-adv-x="534" 
d="M354 310l-46 -310h-99l-45 310c-6 41 -13 103 -19 154c1 -49 2 -107 2 -154v-310h-122v700h195l34 -271c5 -37 7 -78 10 -119c3 41 5 82 10 119l34 271h201v-700h-137v310c0 47 1 107 2 157c-7 -52 -14 -117 -20 -157z" />
    <glyph glyph-name="N" unicode="N" horiz-adv-x="401" 
d="M222 0l-57 271c-10 49 -17 95 -23 144c1 -50 3 -95 3 -144v-271h-120v700h168l45 -237c9 -48 14 -95 20 -144c-1 50 -3 96 -3 144v237h121v-700h-154z" />
    <glyph glyph-name="O" unicode="O" horiz-adv-x="386" 
d="M21 150v400c0 120 29 155 139 155h66c110 0 139 -35 139 -155v-400c0 -120 -29 -155 -139 -155h-66c-110 0 -139 35 -139 155zM225 167v366c0 30 -3 40 -27 40h-10c-24 0 -27 -10 -27 -40v-366c0 -30 3 -40 27 -40h10c24 0 27 10 27 40z" />
    <glyph glyph-name="P" unicode="P" horiz-adv-x="379" 
d="M26 0v700h203c110 0 138 -35 138 -155v-150c0 -120 -28 -156 -138 -156h-63v-239h-140zM166 371h35c23 0 26 10 26 40v117c0 30 -3 40 -26 40h-35v-197z" />
    <glyph glyph-name="Q" unicode="Q" horiz-adv-x="386" 
d="M21 150v400c0 120 29 155 139 155h66c110 0 139 -35 139 -155v-400c0 -100 -21 -141 -91 -152v-17c0 -28 7 -38 27 -38h27v-70h-60c-87 0 -116 17 -116 122c-104 2 -131 38 -131 155zM225 167v366c0 30 -3 40 -27 40h-10c-24 0 -27 -10 -27 -40v-366c0 -30 3 -40 27 -40
h10c24 0 27 10 27 40z" />
    <glyph glyph-name="R" unicode="R" horiz-adv-x="387" 
d="M366 204v-81c0 -45 4 -88 18 -123h-144c-12 23 -14 65 -14 109v123c0 33 -7 52 -37 52h-26v-284h-140v700h204c111 0 139 -35 139 -155v-53c0 -85 -14 -126 -62 -143c48 -17 62 -60 62 -145zM226 456v72c0 30 -3 40 -26 40h-37v-152h37c23 0 26 10 26 40z" />
    <glyph glyph-name="S" unicode="S" horiz-adv-x="366" 
d="M209 167v25c0 56 -21 74 -87 128c-71 60 -105 99 -105 202v28c0 120 29 155 139 155h55c110 0 138 -35 138 -155v-85h-131v68c0 30 -4 40 -27 40h-8c-24 0 -27 -10 -27 -37v-13c0 -55 22 -74 87 -128c72 -60 106 -99 106 -202v-43c0 -120 -29 -155 -138 -155h-56
c-109 0 -138 35 -138 155v105h131v-88c0 -30 3 -40 26 -40h9c23 0 26 10 26 40z" />
    <glyph glyph-name="T" unicode="T" horiz-adv-x="291" 
d="M216 0h-140v569h-74v131h288v-131h-74v-569z" />
    <glyph glyph-name="U" unicode="U" horiz-adv-x="382" 
d="M164 700v-533c0 -30 3 -40 26 -40h11c23 0 26 10 26 40v533h132v-550c0 -120 -28 -155 -138 -155h-58c-110 0 -139 35 -139 155v550h140z" />
    <glyph glyph-name="V" unicode="V" horiz-adv-x="368" 
d="M146 700l25 -221c10 -90 17 -207 20 -287c5 81 12 197 22 287l25 221h126l-87 -700h-185l-87 700h141z" />
    <glyph glyph-name="W" unicode="W" horiz-adv-x="573" 
d="M278 208l-20 -208h-170l-83 700h141l26 -269c7 -72 13 -141 15 -206c3 65 8 134 15 206l26 269h133l25 -269c7 -72 13 -141 15 -206c2 65 9 134 16 206l27 269h125l-82 -700h-163l-20 208c-5 56 -11 121 -13 179c-2 -58 -8 -123 -13 -179z" />
    <glyph glyph-name="X" unicode="X" horiz-adv-x="374" 
d="M217 597l21 103h124l-73 -333l80 -367h-141l-24 127c-9 50 -20 107 -26 163c-6 -56 -15 -113 -24 -163l-23 -127h-127l78 367l-76 333h141l21 -103c10 -48 20 -108 25 -157c5 49 14 110 24 157z" />
    <glyph glyph-name="Y" unicode="Y" horiz-adv-x="364" 
d="M252 0h-140v209l-110 491h141l21 -110c9 -48 19 -125 26 -209c7 84 17 161 26 209l21 110h126l-111 -491v-209z" />
    <glyph glyph-name="Z" unicode="Z" horiz-adv-x="312" 
d="M19 568v132h281v-121l-142 -447h142v-132h-289v121l142 447h-134z" />
    <glyph glyph-name="bracketleft" unicode="[" horiz-adv-x="224" 
d="M26 710h184v-106h-59v-568h59v-106h-184v780z" />
    <glyph glyph-name="backslash" unicode="\" 
d="M118 720l246 -740h-124l-246 740h124z" />
    <glyph glyph-name="bracketright" unicode="]" horiz-adv-x="224" 
d="M14 710h184v-780h-184v106h59v568h-59v106z" />
    <glyph glyph-name="asciicircum" unicode="^" 
d="M133 700h92l114 -296h-105l-55 150l-54 -150h-105z" />
    <glyph glyph-name="underscore" unicode="_" horiz-adv-x="500" 
d="M500 -11v-79h-500v79h500z" />
    <glyph glyph-name="grave" unicode="`" horiz-adv-x="179" 
d="M110 698l51 -119h-77l-82 119h108z" />
    <glyph glyph-name="a" unicode="a" horiz-adv-x="345" 
d="M16 187c0 68 15 109 90 135c80 28 92 32 92 83c0 26 -4 36 -24 36h-8c-20 0 -23 -10 -23 -36v-43h-119v57c0 108 26 138 124 138h52c97 0 124 -30 124 -138v-326c0 -32 1 -60 9 -93h-120c-6 11 -9 32 -11 65c-8 -44 -31 -70 -85 -70h-22c-61 0 -79 29 -79 103v89z
M198 150v99l-15 -5c-37 -12 -41 -25 -41 -61v-37c0 -25 3 -35 23 -35h7c20 0 26 13 26 39z" />
    <glyph glyph-name="b" unicode="b" horiz-adv-x="350" 
d="M204 406c0 25 -3 35 -22 35h-8c-19 0 -25 -13 -25 -39v-252c0 -26 6 -39 25 -39h8c19 0 22 10 22 35v260zM149 700v-196c11 34 34 53 80 53h23c61 0 79 -29 79 -103v-356c0 -74 -18 -103 -79 -103h-23c-51 0 -74 23 -83 63l-11 -58h-112v700h126z" />
    <glyph glyph-name="c" unicode="c" horiz-adv-x="338" 
d="M201 147v88h118v-102c0 -107 -25 -138 -123 -138h-53c-98 0 -124 31 -124 138v286c0 108 26 138 124 138h53c98 0 123 -30 123 -138v-92h-118v78c0 26 -4 36 -24 36h-8c-20 0 -24 -10 -24 -36v-258c0 -26 4 -36 24 -36h8c20 0 24 10 24 36z" />
    <glyph glyph-name="d" unicode="d" horiz-adv-x="350" 
d="M202 150v252c0 26 -7 39 -26 39h-7c-20 0 -23 -10 -23 -35v-260c0 -25 3 -35 23 -35h7c19 0 26 13 26 39zM328 93c0 -32 0 -60 9 -93h-120c-6 10 -10 31 -12 62c-9 -43 -32 -67 -84 -67h-22c-61 0 -79 29 -79 103v356c0 74 18 103 79 103h22c46 0 70 -20 81 -54v197h126
v-607z" />
    <glyph glyph-name="e" unicode="e" horiz-adv-x="338" 
d="M201 147v41h118v-55c0 -107 -25 -138 -123 -138h-53c-98 0 -124 31 -124 138v286c0 108 26 138 124 138h53c98 0 123 -30 123 -138v-188h-174v-84c0 -26 4 -36 24 -36h8c20 0 24 10 24 36zM145 405v-64h56v64c0 26 -4 36 -24 36h-8c-20 0 -24 -10 -24 -36z" />
    <glyph glyph-name="f" unicode="f" horiz-adv-x="208" 
d="M4 447v105h30v12c0 105 27 136 125 136h47v-98h-20c-20 0 -28 -6 -28 -35v-15h48v-105h-46v-447h-126v447h-30z" />
    <glyph glyph-name="g" unicode="g" horiz-adv-x="350" 
d="M313 292c0 -107 -27 -139 -125 -139h-53c-17 0 -24 -5 -24 -22v-2c0 -16 9 -20 27 -20h77c85 0 132 -16 132 -107v-15c0 -90 -33 -119 -131 -119h-109c-54 0 -90 20 -90 78v20c0 29 11 46 31 56c-17 17 -22 40 -22 68v9c0 35 12 56 32 69c-32 18 -42 56 -42 124v127
c0 108 25 138 124 138h40c56 0 88 -10 105 -39c5 25 18 39 45 39h18v-113h-20c-12 0 -15 -8 -15 -25v-127zM136 420v-129c0 -26 4 -36 24 -36h8c21 0 24 10 24 36v129c0 25 -3 35 -24 35h-8c-20 0 -24 -10 -24 -35zM247 -31v5c0 18 -11 22 -33 22h-78c-21 0 -30 -6 -30 -23
v-4c0 -20 10 -24 31 -24h77c22 0 33 3 33 24z" />
    <glyph glyph-name="h" unicode="h" horiz-adv-x="352" 
d="M331 0h-127v406c0 25 -3 35 -22 35h-8c-19 0 -25 -13 -25 -39v-402h-126v700h126v-196c11 34 34 53 80 53h23c61 0 79 -29 79 -103v-454z" />
    <glyph glyph-name="i" unicode="i" horiz-adv-x="172" 
d="M149 552v-552h-126v552h126zM23 596v104h126v-104h-126z" />
    <glyph glyph-name="j" unicode="j" horiz-adv-x="172" 
d="M23 552h126v-541c0 -107 -25 -138 -124 -138h-35v94h5c22 0 28 4 28 35v550zM23 596v104h126v-104h-126z" />
    <glyph glyph-name="k" unicode="k" horiz-adv-x="351" 
d="M149 241v-241h-126v700h126v-383c7 27 14 46 21 68l54 167h120l-92 -261l97 -291h-131l-53 175c-7 23 -11 40 -16 66z" />
    <glyph glyph-name="l" unicode="l" horiz-adv-x="172" 
d="M149 0h-126v700h126v-700z" />
    <glyph glyph-name="m" unicode="m" horiz-adv-x="530" 
d="M149 0h-126v552h120v-75c7 50 29 80 86 80h21c47 0 68 -17 76 -60c10 38 33 60 82 60h21c61 0 79 -29 79 -103v-454h-126v406c0 25 -3 35 -23 35h-5c-19 0 -25 -13 -25 -39v-402h-127v406c0 25 -3 35 -22 35h-6c-19 0 -25 -13 -25 -39v-402z" />
    <glyph glyph-name="n" unicode="n" horiz-adv-x="352" 
d="M331 0h-127v406c0 25 -3 35 -22 35h-8c-19 0 -25 -13 -25 -39v-402h-126v552h120v-75c7 50 29 80 86 80h23c61 0 79 -29 79 -103v-454z" />
    <glyph glyph-name="o" unicode="o" horiz-adv-x="346" 
d="M327 419v-286c0 -107 -27 -138 -124 -138h-60c-98 0 -124 31 -124 138v286c0 108 26 138 124 138h60c97 0 124 -30 124 -138zM145 405v-258c0 -26 4 -36 24 -36h8c20 0 24 10 24 36v258c0 26 -4 36 -24 36h-8c-20 0 -24 -10 -24 -36z" />
    <glyph glyph-name="p" unicode="p" horiz-adv-x="350" 
d="M204 406c0 25 -3 35 -22 35h-8c-19 0 -25 -13 -25 -39v-252c0 -26 6 -39 25 -39h8c19 0 22 10 22 35v260zM149 -127h-126v679h120v-75c7 50 29 80 86 80h23c61 0 79 -29 79 -103v-356c0 -74 -18 -103 -79 -103h-23c-46 0 -69 19 -80 52v-174z" />
    <glyph glyph-name="q" unicode="q" horiz-adv-x="350" 
d="M202 150v252c0 26 -7 39 -26 39h-7c-20 0 -23 -10 -23 -35v-260c0 -25 3 -35 23 -35h7c19 0 26 13 26 39zM328 552v-679h-126v176c-11 -35 -35 -54 -81 -54h-22c-61 0 -79 29 -79 103v356c0 74 18 103 79 103h22c50 0 74 -24 84 -64l10 59h113z" />
    <glyph glyph-name="r" unicode="r" horiz-adv-x="225" 
d="M149 0h-126v552h120v-82c7 54 29 87 73 87h7v-136h-8c-50 0 -66 -25 -66 -90v-331z" />
    <glyph glyph-name="s" unicode="s" horiz-adv-x="333" 
d="M191 147v18c0 34 -20 45 -80 77c-71 38 -94 75 -94 149v28c0 108 25 138 124 138h51c98 0 125 -30 125 -138v-57h-119v43c0 26 -3 36 -23 36h-9c-20 0 -23 -10 -23 -36v-8c0 -34 19 -45 79 -77c71 -38 95 -75 95 -149v-38c0 -107 -27 -138 -125 -138h-51
c-99 0 -124 31 -124 138v67h118v-53c0 -26 3 -36 24 -36h8c20 0 24 10 24 36z" />
    <glyph glyph-name="t" unicode="t" horiz-adv-x="207" 
d="M4 447v105h30v120h126v-120h45v-105h-45v-321c0 -47 5 -89 19 -126h-131c-12 23 -14 66 -14 112v335h-30z" />
    <glyph glyph-name="u" unicode="u" horiz-adv-x="352" 
d="M329 93c0 -32 1 -60 9 -93h-120c-6 11 -9 32 -11 64c-8 -44 -31 -69 -84 -69h-23c-61 0 -78 29 -78 103v454h126v-406c0 -25 3 -35 22 -35h8c19 0 25 13 25 39v402h126v-459z" />
    <glyph glyph-name="v" unicode="v" horiz-adv-x="330" 
d="M131 552l18 -138c10 -77 18 -181 23 -270c5 89 14 193 24 270l18 138h114l-81 -552h-164l-81 552h129z" />
    <glyph glyph-name="w" unicode="w" horiz-adv-x="521" 
d="M250 104l-10 -104h-168l-70 552h129l14 -118c12 -103 16 -206 20 -282c5 76 13 179 25 281l14 119h128l15 -119c13 -102 20 -205 24 -281c4 76 5 179 18 282l15 118h115l-70 -552h-158l-10 104c-6 58 -14 123 -16 180c-3 -57 -9 -122 -15 -180z" />
    <glyph glyph-name="x" unicode="x" horiz-adv-x="327" 
d="M201 529l5 23h115l-60 -262l63 -290h-130l-8 42c-11 56 -27 137 -31 195c-5 -58 -17 -139 -28 -195l-8 -42h-116l63 290l-60 262h129l5 -23c13 -62 27 -140 31 -186c5 46 17 124 30 186z" />
    <glyph glyph-name="y" unicode="y" horiz-adv-x="330" 
d="M240 -30c-8 -60 -44 -97 -116 -97h-109v94h49c16 0 20 7 20 22v20l-82 543h129l18 -138c10 -77 19 -198 23 -270c4 72 12 193 23 270l19 138h114z" />
    <glyph glyph-name="z" unicode="z" horiz-adv-x="293" 
d="M24 447v105h259v-94l-136 -353h136v-105h-272v93l136 354h-123z" />
    <glyph glyph-name="braceleft" unicode="{" horiz-adv-x="244" 
d="M23 266h-21v106h21c19 0 23 8 23 34v166c0 107 26 138 124 138h61v-106h-37c-20 0 -23 -10 -23 -36v-117c0 -82 -15 -119 -67 -132c52 -12 67 -49 67 -131v-116c0 -26 3 -36 23 -36h37v-106h-61c-98 0 -124 31 -124 138v164c0 26 -4 34 -23 34z" />
    <glyph glyph-name="bar" unicode="|" 
d="M238 700v-827h-118v827h118z" />
    <glyph glyph-name="braceright" unicode="}" horiz-adv-x="244" 
d="M242 266h-21c-19 0 -23 -8 -23 -34v-164c0 -107 -26 -138 -124 -138h-61v106h37c20 0 23 10 23 36v116c0 82 15 119 67 131c-52 13 -67 50 -67 132v117c0 26 -3 36 -23 36h-37v106h61c98 0 124 -31 124 -138v-166c0 -26 4 -34 23 -34h21v-106z" />
    <glyph glyph-name="asciitilde" unicode="~" 
d="M338 432v-114c-28 -37 -57 -49 -85 -49c-54 0 -108 43 -159 43c-26 0 -51 -11 -74 -44v113c28 37 56 49 85 49c53 0 107 -43 158 -43c26 0 51 12 75 45z" />
    <glyph glyph-name="uni00A0" unicode="&#xa0;" horiz-adv-x="137" 
 />
    <glyph glyph-name="exclamdown" unicode="&#xa1;" horiz-adv-x="184" 
d="M22 89l22 291h96l22 -291v-216h-140v216zM163 573v-156h-142v156h142z" />
    <glyph glyph-name="cent" unicode="&#xa2;" 
d="M210 221v88h119v-102c0 -99 -22 -133 -102 -138v-69h-99v70c-78 5 -99 39 -99 137v286c0 98 21 131 99 137v70h99v-70c80 -4 102 -38 102 -137v-92h-119v78c0 26 -3 36 -23 36h-9c-20 0 -23 -10 -23 -36v-258c0 -26 3 -36 23 -36h9c20 0 23 10 23 36z" />
    <glyph glyph-name="sterling" unicode="&#xa3;" 
d="M320 212h-109c-5 -36 -20 -66 -51 -90h170v-122h-314v109c51 32 72 53 78 103h-68v87h60c-19 51 -60 102 -60 214v48c0 112 27 144 128 144h54c103 0 129 -32 129 -144v-161h-123v145c0 27 -3 37 -25 37h-8c-23 0 -25 -10 -25 -37v-33c0 -113 35 -157 51 -213h113v-87z
" />
    <glyph glyph-name="currency" unicode="&#xa4;" 
d="M44 349c0 27 8 54 22 74l-55 49l46 46l48 -56c22 14 47 23 74 23c28 0 53 -9 75 -23l48 56l46 -46l-56 -49c15 -20 23 -47 23 -74s-7 -53 -22 -74l55 -48l-46 -46l-47 55c-23 -15 -48 -22 -76 -22c-27 0 -53 7 -75 22l-47 -55l-46 46l55 48c-15 21 -22 47 -22 74z
M104 349c0 -42 33 -77 75 -77s77 35 77 77c0 43 -35 78 -77 78s-75 -35 -75 -78z" />
    <glyph glyph-name="yen" unicode="&#xa5;" 
d="M211 590l19 110h117l-94 -444h88v-37h-96l-2 -10v-49h98v-37h-98v-123h-130v123h-96v37h96v49l-2 10h-94v37h86l-92 444h131l20 -110c9 -48 18 -125 24 -209c6 84 17 161 25 209z" />
    <glyph glyph-name="brokenbar" unicode="&#xa6;" 
d="M238 700v-386h-118v386h118zM238 259v-386h-118v386h118z" />
    <glyph glyph-name="section" unicode="&#xa7;" horiz-adv-x="345" 
d="M140 42c0 -26 2 -36 24 -36h9c21 0 24 10 24 36v7c0 30 -9 46 -69 69c-85 32 -111 66 -111 136v82c0 48 13 77 45 92c-40 32 -45 69 -45 116v18c0 111 26 143 129 143h54c102 0 129 -32 129 -143v-41h-124v40c0 26 -2 36 -24 36h-8c-22 0 -25 -10 -25 -36v-7
c0 -30 9 -46 70 -69c85 -32 111 -66 111 -136v-82c0 -49 -14 -78 -46 -93c40 -32 45 -68 45 -115v-18c0 -111 -26 -143 -129 -143h-54c-102 0 -128 32 -128 143v41h123v-40zM202 315c0 25 -4 39 -32 56h-3c-20 0 -24 -8 -24 -28v-55c0 -26 3 -39 32 -56h3c21 0 24 8 24 28
v55z" />
    <glyph glyph-name="dieresis" unicode="&#xa8;" horiz-adv-x="179" 
d="M213 586h-107v105h107v-105zM71 586h-107v105h107v-105z" />
    <glyph glyph-name="copyright" unicode="&#xa9;" horiz-adv-x="581" 
d="M553 437v-174c0 -180 -51 -268 -247 -268h-31c-196 0 -246 88 -246 268v174c0 180 50 268 246 268h31c196 0 247 -88 247 -268zM104 437v-174c0 -150 40 -199 172 -199h30c132 0 171 49 171 199v174c0 150 -39 199 -171 199h-30c-132 0 -172 -49 -172 -199zM267 462v-224
c0 -24 4 -31 21 -31h7c18 0 21 7 21 31v79h79v-92c0 -76 -20 -96 -89 -96h-35c-69 0 -88 20 -88 96v250c0 76 19 96 88 96h35c69 0 89 -20 89 -96v-74h-79v61c0 24 -3 31 -21 31h-7c-17 0 -21 -7 -21 -31z" />
    <glyph glyph-name="ordfeminine" unicode="&#xaa;" horiz-adv-x="267" 
d="M108 589v-21h-87v34c0 80 20 103 93 103h39c74 0 93 -23 93 -103v-220c0 -23 0 -46 9 -69h-86c-6 6 -9 33 -10 57c-6 -39 -22 -62 -65 -62h-17c-45 0 -62 24 -62 80v54c0 47 12 76 70 96c61 21 69 25 69 60c0 15 -6 21 -20 21h-7c-16 0 -19 -8 -19 -30zM17 191v86h233
v-86h-233zM154 426v53c-6 -4 -11 -6 -18 -9c-25 -11 -28 -22 -28 -39v-9c0 -21 3 -30 19 -30h6c15 0 21 12 21 34z" />
    <glyph glyph-name="guillemotleft" unicode="&#xab;" horiz-adv-x="375" 
d="M101 76l-99 200l99 200h116l-92 -200l92 -200h-116zM258 76l-93 200l93 200h115l-87 -200l87 -200h-115z" />
    <glyph glyph-name="logicalnot" unicode="&#xac;" 
d="M231 294h-211v112h318v-235h-107v123z" />
    <glyph glyph-name="uni00AD" unicode="&#xad;" horiz-adv-x="239" 
d="M224 316v-95h-208v95h208z" />
    <glyph glyph-name="registered" unicode="&#xae;" horiz-adv-x="581" 
d="M553 437v-174c0 -180 -51 -268 -247 -268h-31c-196 0 -246 88 -246 268v174c0 180 50 268 246 268h31c196 0 247 -88 247 -268zM104 437v-174c0 -150 40 -199 172 -199h30c132 0 171 49 171 199v174c0 150 -39 199 -171 199h-30c-132 0 -172 -49 -172 -199zM402 469v-36
c0 -55 -10 -81 -42 -92c32 -10 42 -36 42 -90v-38c0 -29 3 -56 11 -78h-87c-7 13 -7 42 -7 69v66c0 25 -10 33 -27 33h-22v-168h-84v430h129c68 0 87 -20 87 -96zM297 488h-27v-108h27c17 0 22 8 22 32v44c0 24 -5 32 -22 32z" />
    <glyph glyph-name="macron" unicode="&#xaf;" horiz-adv-x="179" 
d="M201 589h-222v75h222v-75z" />
    <glyph glyph-name="degree" unicode="&#xb0;" horiz-adv-x="267" 
d="M134 689c76 0 122 -49 122 -125c0 -77 -46 -127 -122 -127c-77 0 -123 50 -123 127c0 76 46 125 123 125zM134 611c-28 0 -44 -19 -44 -47c0 -30 16 -48 44 -48s42 18 42 48c0 28 -14 47 -42 47z" />
    <glyph glyph-name="plusminus" unicode="&#xb1;" 
d="M338 222v-112h-318v112h318zM125 590h107v-115h106v-112h-106v-115h-107v115h-105v112h105v115z" />
    <glyph glyph-name="twosuperior" unicode="&#xb2;" horiz-adv-x="270" 
d="M112 584v-56h-88v71c0 82 22 106 96 106h38c74 0 97 -24 97 -106v-30c0 -95 -51 -116 -92 -146c-37 -26 -55 -37 -55 -76v-3h144v-89h-237v94c0 71 33 104 81 134c49 31 65 47 65 94v7c0 23 -3 32 -22 32h-6c-19 0 -21 -9 -21 -32z" />
    <glyph glyph-name="threesuperior" unicode="&#xb3;" horiz-adv-x="270" 
d="M157 372v30c0 24 -2 32 -21 32h-69v89h69c19 0 21 9 21 32v29c0 23 -2 32 -21 32h-7c-18 0 -21 -9 -21 -32v-19h-89v34c0 82 22 106 97 106h38c73 0 97 -24 97 -106v-19c0 -63 -14 -92 -53 -102c39 -10 53 -39 53 -101v-21c0 -82 -24 -106 -97 -106h-38
c-75 0 -97 24 -97 106v34h89v-18c0 -24 3 -32 21 -32h7c19 0 21 8 21 32z" />
    <glyph glyph-name="acute" unicode="&#xb4;" horiz-adv-x="179" 
d="M18 579l51 119h107l-81 -119h-77z" />
    <glyph glyph-name="uni00B5" unicode="&#xb5;" horiz-adv-x="352" 
d="M148 552v-406c0 -25 3 -35 22 -35h8c19 0 25 13 25 39v402h126v-459c0 -32 1 -60 9 -93h-120c-6 11 -9 32 -11 64c-7 -36 -24 -60 -59 -66v-125h-126v679h126z" />
    <glyph glyph-name="paragraph" unicode="&#xb6;" horiz-adv-x="456" 
d="M287 603v-700h-96v299h-41c-110 0 -138 35 -138 155v188c0 120 28 155 138 155h280v-797h-96v700h-47z" />
    <glyph glyph-name="periodcentered" unicode="&#xb7;" horiz-adv-x="179" 
d="M18 265v171h142v-171h-142z" />
    <glyph glyph-name="cedilla" unicode="&#xb8;" horiz-adv-x="179" 
d="M106 -80c0 17 -10 27 -49 27v55h43v-35c59 0 85 -9 85 -46c0 -29 -6 -53 -99 -53c-84 0 -91 16 -91 56h66c0 -17 1 -26 22 -26c20 0 23 7 23 22z" />
    <glyph glyph-name="onesuperior" unicode="&#xb9;" horiz-adv-x="149" 
d="M122 255h-94v398c23 0 51 27 51 47h43v-445z" />
    <glyph glyph-name="ordmasculine" unicode="&#xba;" horiz-adv-x="265" 
d="M17 191v86h231v-86h-231zM17 412v190c0 80 19 103 93 103h46c73 0 92 -23 92 -103v-190c0 -80 -19 -104 -92 -104h-46c-74 0 -93 24 -93 104zM156 424v165c0 22 -3 30 -20 30h-7c-16 0 -19 -8 -19 -30v-165c0 -21 3 -30 19 -30h7c17 0 20 9 20 30z" />
    <glyph glyph-name="guillemotright" unicode="&#xbb;" horiz-adv-x="375" 
d="M373 276l-99 -200h-116l92 200l-92 200h116zM210 276l-93 -200h-115l87 200l-87 200h115z" />
    <glyph glyph-name="onequarter" unicode="&#xbc;" horiz-adv-x="467" 
d="M59 0l251 700h34l-251 -700h-34zM122 255h-94v398c23 0 51 27 51 47h43v-445zM329 445h99v-287h28v-80h-28v-78h-94v78h-126v73zM292 158h42v33c0 31 2 72 6 118c-13 -46 -24 -85 -36 -118z" />
    <glyph glyph-name="onehalf" unicode="&#xbd;" horiz-adv-x="504" 
d="M59 0l251 700h34l-251 -700h-34zM122 255h-94v398c23 0 51 27 51 47h43v-445zM346 329v-56h-88v71c0 82 22 106 96 106h38c74 0 97 -24 97 -106v-30c0 -95 -51 -116 -92 -146c-37 -26 -55 -37 -55 -76v-3h144v-89h-237v94c0 71 33 104 81 134c49 31 65 47 65 94v7
c0 23 -3 32 -22 32h-6c-19 0 -21 -9 -21 -32z" />
    <glyph glyph-name="threequarters" unicode="&#xbe;" horiz-adv-x="570" 
d="M161 0l251 700h34l-251 -700h-34zM432 445h99v-287h28v-80h-28v-78h-94v78h-126v73zM395 158h42v33c0 31 2 72 6 118c-13 -46 -24 -85 -36 -118zM157 372v30c0 24 -2 32 -21 32h-69v89h69c19 0 21 9 21 32v29c0 23 -2 32 -21 32h-7c-18 0 -21 -9 -21 -32v-19h-89v34
c0 82 22 106 97 106h38c73 0 97 -24 97 -106v-19c0 -63 -14 -92 -53 -102c39 -10 53 -39 53 -101v-21c0 -82 -24 -106 -97 -106h-38c-75 0 -97 24 -97 106v34h89v-18c0 -24 3 -32 21 -32h7c19 0 21 8 21 32z" />
    <glyph glyph-name="questiondown" unicode="&#xbf;" horiz-adv-x="337" 
d="M251 573v-165h-139v165h139zM143 43v-15c0 -27 3 -37 25 -37h9c22 0 24 10 24 37v94h123v-110c0 -112 -26 -144 -128 -144h-55c-101 0 -128 32 -128 144v46c0 158 112 155 112 272v35h113v-33c0 -160 -95 -150 -95 -289z" />
    <glyph glyph-name="Agrave" unicode="&#xc0;" horiz-adv-x="375" 
d="M230 0l-11 91h-79l-10 -91h-126l87 700h193l86 -700h-140zM179 597c-6 -111 -15 -235 -27 -382h54c-12 147 -21 271 -27 382zM190 840l51 -119h-77l-82 119h108z" />
    <glyph glyph-name="Aacute" unicode="&#xc1;" horiz-adv-x="375" 
d="M230 0l-11 91h-79l-10 -91h-126l87 700h193l86 -700h-140zM179 597c-6 -111 -15 -235 -27 -382h54c-12 147 -21 271 -27 382zM134 721l51 119h107l-81 -119h-77z" />
    <glyph glyph-name="Acircumflex" unicode="&#xc2;" horiz-adv-x="375" 
d="M230 0l-11 91h-79l-10 -91h-126l87 700h193l86 -700h-140zM179 597c-6 -111 -15 -235 -27 -382h54c-12 147 -21 271 -27 382zM232 840l69 -119h-78l-35 52l-35 -52h-78l69 119h88z" />
    <glyph glyph-name="Atilde" unicode="&#xc3;" horiz-adv-x="375" 
d="M230 0l-11 91h-79l-10 -91h-126l87 700h193l86 -700h-140zM179 597c-6 -111 -15 -235 -27 -382h54c-12 147 -21 271 -27 382zM246 829h56c0 -74 -22 -99 -72 -99c-42 0 -57 24 -81 24c-15 0 -19 -7 -19 -24h-57c0 75 22 99 73 99c43 0 58 -26 82 -26c14 0 18 11 18 26z
" />
    <glyph glyph-name="Adieresis" unicode="&#xc4;" horiz-adv-x="375" 
d="M230 0l-11 91h-79l-10 -91h-126l87 700h193l86 -700h-140zM179 597c-6 -111 -15 -235 -27 -382h54c-12 147 -21 271 -27 382zM311 728h-107v105h107v-105zM169 728h-107v105h107v-105z" />
    <glyph glyph-name="Aring" unicode="&#xc5;" horiz-adv-x="375" 
d="M230 0l-11 91h-79l-10 -91h-126l87 700h193l86 -700h-140zM179 597c-6 -111 -15 -235 -27 -382h54c-12 147 -21 271 -27 382zM212 792c0 14 -10 24 -24 24s-24 -10 -24 -24c0 -15 10 -25 24 -25s24 10 24 25zM114 792c0 43 34 71 74 71c41 0 74 -28 74 -71
c0 -44 -33 -72 -74 -72c-40 0 -74 28 -74 72z" />
    <glyph glyph-name="AE" unicode="&#xc6;" horiz-adv-x="501" 
d="M3 0l161 700h323v-132h-122v-138h96v-132h-96v-166h122v-132h-262v91h-77l-19 -91h-126zM225 522c-14 -94 -32 -216 -51 -307h51v307z" />
    <glyph glyph-name="Ccedilla" unicode="&#xc7;" horiz-adv-x="377" 
d="M205 -80c0 17 -10 27 -49 27v48c-107 1 -135 36 -135 155v400c0 120 29 155 139 155h58c110 0 138 -35 138 -155v-119h-131v102c0 30 -3 40 -27 40h-10c-24 0 -27 -10 -27 -40v-366c0 -30 3 -40 27 -40h10c24 0 27 10 27 40v132h131v-149c0 -120 -28 -155 -138 -155h-19
v-28c59 0 85 -9 85 -46c0 -29 -6 -53 -99 -53c-84 0 -91 16 -91 56h66c0 -17 1 -26 22 -26c20 0 23 7 23 22z" />
    <glyph glyph-name="Egrave" unicode="&#xc8;" horiz-adv-x="302" 
d="M166 568v-138h96v-132h-96v-166h122v-132h-262v700h262v-132h-122zM161 840l51 -119h-77l-82 119h108z" />
    <glyph glyph-name="Eacute" unicode="&#xc9;" horiz-adv-x="302" 
d="M166 568v-138h96v-132h-96v-166h122v-132h-262v700h262v-132h-122zM105 721l51 119h107l-81 -119h-77z" />
    <glyph glyph-name="Ecircumflex" unicode="&#xca;" horiz-adv-x="302" 
d="M166 568v-138h96v-132h-96v-166h122v-132h-262v700h262v-132h-122zM202 840l69 -119h-78l-35 52l-35 -52h-78l69 119h88z" />
    <glyph glyph-name="Edieresis" unicode="&#xcb;" horiz-adv-x="302" 
d="M166 568v-138h96v-132h-96v-166h122v-132h-262v700h262v-132h-122zM281 728h-107v105h107v-105zM139 728h-107v105h107v-105z" />
    <glyph glyph-name="Igrave" unicode="&#xcc;" horiz-adv-x="192" 
d="M26 0v700h140v-700h-140zM98 840l51 -119h-77l-82 119h108z" />
    <glyph glyph-name="Iacute" unicode="&#xcd;" horiz-adv-x="192" 
d="M26 0v700h140v-700h-140zM42 721l51 119h107l-81 -119h-77z" />
    <glyph glyph-name="Icircumflex" unicode="&#xce;" horiz-adv-x="192" 
d="M26 0v700h140v-700h-140zM140 840l69 -119h-78l-35 52l-35 -52h-78l69 119h88z" />
    <glyph glyph-name="Idieresis" unicode="&#xcf;" horiz-adv-x="192" 
d="M26 0v700h140v-700h-140zM219 728h-107v105h107v-105zM77 728h-107v105h107v-105z" />
    <glyph glyph-name="Eth" unicode="&#xd0;" horiz-adv-x="391" 
d="M26 0v316h-21v103h21v281h205c110 0 138 -35 138 -155v-390c0 -120 -28 -155 -138 -155h-205zM166 132h37c23 0 26 10 26 40v356c0 30 -3 40 -26 40h-37v-149h33v-103h-33v-184z" />
    <glyph glyph-name="Ntilde" unicode="&#xd1;" horiz-adv-x="401" 
d="M222 0l-57 271c-10 49 -17 95 -23 144c1 -50 3 -95 3 -144v-271h-120v700h168l45 -237c9 -48 14 -95 20 -144c-1 50 -3 96 -3 144v237h121v-700h-154zM260 829h56c0 -74 -22 -99 -72 -99c-42 0 -57 24 -81 24c-15 0 -19 -7 -19 -24h-57c0 75 22 99 73 99
c43 0 58 -26 82 -26c14 0 18 11 18 26z" />
    <glyph glyph-name="Ograve" unicode="&#xd2;" horiz-adv-x="386" 
d="M21 150v400c0 120 29 155 139 155h66c110 0 139 -35 139 -155v-400c0 -120 -29 -155 -139 -155h-66c-110 0 -139 35 -139 155zM225 167v366c0 30 -3 40 -27 40h-10c-24 0 -27 -10 -27 -40v-366c0 -30 3 -40 27 -40h10c24 0 27 10 27 40zM195 840l51 -119h-77l-82 119h108
z" />
    <glyph glyph-name="Oacute" unicode="&#xd3;" horiz-adv-x="386" 
d="M21 150v400c0 120 29 155 139 155h66c110 0 139 -35 139 -155v-400c0 -120 -29 -155 -139 -155h-66c-110 0 -139 35 -139 155zM225 167v366c0 30 -3 40 -27 40h-10c-24 0 -27 -10 -27 -40v-366c0 -30 3 -40 27 -40h10c24 0 27 10 27 40zM139 721l51 119h107l-81 -119h-77
z" />
    <glyph glyph-name="Ocircumflex" unicode="&#xd4;" horiz-adv-x="386" 
d="M21 150v400c0 120 29 155 139 155h66c110 0 139 -35 139 -155v-400c0 -120 -29 -155 -139 -155h-66c-110 0 -139 35 -139 155zM225 167v366c0 30 -3 40 -27 40h-10c-24 0 -27 -10 -27 -40v-366c0 -30 3 -40 27 -40h10c24 0 27 10 27 40zM237 840l69 -119h-78l-35 52
l-35 -52h-78l69 119h88z" />
    <glyph glyph-name="Otilde" unicode="&#xd5;" horiz-adv-x="386" 
d="M21 150v400c0 120 29 155 139 155h66c110 0 139 -35 139 -155v-400c0 -120 -29 -155 -139 -155h-66c-110 0 -139 35 -139 155zM225 167v366c0 30 -3 40 -27 40h-10c-24 0 -27 -10 -27 -40v-366c0 -30 3 -40 27 -40h10c24 0 27 10 27 40zM251 829h56
c0 -74 -22 -99 -72 -99c-42 0 -57 24 -81 24c-15 0 -19 -7 -19 -24h-57c0 75 22 99 73 99c43 0 58 -26 82 -26c14 0 18 11 18 26z" />
    <glyph glyph-name="Odieresis" unicode="&#xd6;" horiz-adv-x="386" 
d="M21 150v400c0 120 29 155 139 155h66c110 0 139 -35 139 -155v-400c0 -120 -29 -155 -139 -155h-66c-110 0 -139 35 -139 155zM225 167v366c0 30 -3 40 -27 40h-10c-24 0 -27 -10 -27 -40v-366c0 -30 3 -40 27 -40h10c24 0 27 10 27 40zM316 728h-107v105h107v-105z
M174 728h-107v105h107v-105z" />
    <glyph glyph-name="multiply" unicode="&#xd7;" 
d="M109 350l-90 95l70 73l90 -95l90 96l70 -73l-91 -96l91 -95l-70 -73l-90 95l-90 -95l-70 73z" />
    <glyph glyph-name="Oslash" unicode="&#xd8;" horiz-adv-x="386" 
d="M21 150v400c0 120 29 155 139 155h66c6 0 12 -1 17 -1l8 26h113l-20 -67c15 -24 21 -60 21 -113v-400c0 -120 -29 -155 -139 -155h-66c-6 0 -12 1 -18 1l-7 -26h-114l20 67c-15 24 -20 61 -20 113zM225 167v165l-49 -204c3 -1 7 -1 12 -1h10c24 0 27 10 27 40zM161 533
v-164l48 203c-3 1 -7 1 -11 1h-10c-24 0 -27 -10 -27 -40z" />
    <glyph glyph-name="Ugrave" unicode="&#xd9;" horiz-adv-x="382" 
d="M164 700v-533c0 -30 3 -40 26 -40h11c23 0 26 10 26 40v533h132v-550c0 -120 -28 -155 -138 -155h-58c-110 0 -139 35 -139 155v550h140zM194 840l51 -119h-77l-82 119h108z" />
    <glyph glyph-name="Uacute" unicode="&#xda;" horiz-adv-x="382" 
d="M164 700v-533c0 -30 3 -40 26 -40h11c23 0 26 10 26 40v533h132v-550c0 -120 -28 -155 -138 -155h-58c-110 0 -139 35 -139 155v550h140zM137 721l51 119h107l-81 -119h-77z" />
    <glyph glyph-name="Ucircumflex" unicode="&#xdb;" horiz-adv-x="382" 
d="M164 700v-533c0 -30 3 -40 26 -40h11c23 0 26 10 26 40v533h132v-550c0 -120 -28 -155 -138 -155h-58c-110 0 -139 35 -139 155v550h140zM235 840l69 -119h-78l-35 52l-35 -52h-78l69 119h88z" />
    <glyph glyph-name="Udieresis" unicode="&#xdc;" horiz-adv-x="382" 
d="M164 700v-533c0 -30 3 -40 26 -40h11c23 0 26 10 26 40v533h132v-550c0 -120 -28 -155 -138 -155h-58c-110 0 -139 35 -139 155v550h140zM314 728h-107v105h107v-105zM172 728h-107v105h107v-105z" />
    <glyph glyph-name="Yacute" unicode="&#xdd;" horiz-adv-x="364" 
d="M252 0h-140v209l-110 491h141l21 -110c9 -48 19 -125 26 -209c7 84 17 161 26 209l21 110h126l-111 -491v-209zM132 721l51 119h107l-81 -119h-77z" />
    <glyph glyph-name="Thorn" unicode="&#xde;" horiz-adv-x="378" 
d="M26 0v700h140v-60h63c110 0 138 -35 138 -154v-133c0 -119 -28 -155 -138 -155h-63v-198h-140zM166 330h35c23 0 26 10 26 40v98c0 30 -3 40 -26 40h-35v-178z" />
    <glyph glyph-name="germandbls" unicode="&#xdf;" horiz-adv-x="348" 
d="M204 509v62c0 26 -3 36 -23 36h-9c-18 0 -23 -7 -23 -34v-573h-126v567c0 107 26 138 124 138h59c99 0 125 -31 125 -138v-22c0 -80 -15 -117 -62 -131c47 -14 62 -52 62 -130v-146c0 -107 -26 -138 -125 -138h-37v105h12c17 0 23 6 23 37v177c0 26 -3 36 -23 36h-12v118
h12c20 0 23 10 23 36z" />
    <glyph glyph-name="agrave" unicode="&#xe0;" horiz-adv-x="345" 
d="M16 187c0 68 15 109 90 135c80 28 92 32 92 83c0 26 -4 36 -24 36h-8c-20 0 -23 -10 -23 -36v-43h-119v57c0 108 26 138 124 138h52c97 0 124 -30 124 -138v-326c0 -32 1 -60 9 -93h-120c-6 11 -9 32 -11 65c-8 -44 -31 -70 -85 -70h-22c-61 0 -79 29 -79 103v89z
M198 150v99l-15 -5c-37 -12 -41 -25 -41 -61v-37c0 -25 3 -35 23 -35h7c20 0 26 13 26 39zM175 698l51 -119h-77l-82 119h108z" />
    <glyph glyph-name="aacute" unicode="&#xe1;" horiz-adv-x="345" 
d="M16 187c0 68 15 109 90 135c80 28 92 32 92 83c0 26 -4 36 -24 36h-8c-20 0 -23 -10 -23 -36v-43h-119v57c0 108 26 138 124 138h52c97 0 124 -30 124 -138v-326c0 -32 1 -60 9 -93h-120c-6 11 -9 32 -11 65c-8 -44 -31 -70 -85 -70h-22c-61 0 -79 29 -79 103v89z
M198 150v99l-15 -5c-37 -12 -41 -25 -41 -61v-37c0 -25 3 -35 23 -35h7c20 0 26 13 26 39zM119 579l51 119h107l-81 -119h-77z" />
    <glyph glyph-name="acircumflex" unicode="&#xe2;" horiz-adv-x="345" 
d="M16 187c0 68 15 109 90 135c80 28 92 32 92 83c0 26 -4 36 -24 36h-8c-20 0 -23 -10 -23 -36v-43h-119v57c0 108 26 138 124 138h52c97 0 124 -30 124 -138v-326c0 -32 1 -60 9 -93h-120c-6 11 -9 32 -11 65c-8 -44 -31 -70 -85 -70h-22c-61 0 -79 29 -79 103v89z
M198 150v99l-15 -5c-37 -12 -41 -25 -41 -61v-37c0 -25 3 -35 23 -35h7c20 0 26 13 26 39zM217 698l69 -119h-78l-35 52l-35 -52h-78l69 119h88z" />
    <glyph glyph-name="atilde" unicode="&#xe3;" horiz-adv-x="345" 
d="M16 187c0 68 15 109 90 135c80 28 92 32 92 83c0 26 -4 36 -24 36h-8c-20 0 -23 -10 -23 -36v-43h-119v57c0 108 26 138 124 138h52c97 0 124 -30 124 -138v-326c0 -32 1 -60 9 -93h-120c-6 11 -9 32 -11 65c-8 -44 -31 -70 -85 -70h-22c-61 0 -79 29 -79 103v89z
M198 150v99l-15 -5c-37 -12 -41 -25 -41 -61v-37c0 -25 3 -35 23 -35h7c20 0 26 13 26 39zM231 687h56c0 -74 -22 -99 -72 -99c-42 0 -57 24 -81 24c-15 0 -19 -7 -19 -24h-57c0 75 22 99 73 99c43 0 58 -26 82 -26c14 0 18 11 18 26z" />
    <glyph glyph-name="adieresis" unicode="&#xe4;" horiz-adv-x="345" 
d="M16 187c0 68 15 109 90 135c80 28 92 32 92 83c0 26 -4 36 -24 36h-8c-20 0 -23 -10 -23 -36v-43h-119v57c0 108 26 138 124 138h52c97 0 124 -30 124 -138v-326c0 -32 1 -60 9 -93h-120c-6 11 -9 32 -11 65c-8 -44 -31 -70 -85 -70h-22c-61 0 -79 29 -79 103v89z
M198 150v99l-15 -5c-37 -12 -41 -25 -41 -61v-37c0 -25 3 -35 23 -35h7c20 0 26 13 26 39zM296 586h-107v105h107v-105zM154 586h-107v105h107v-105z" />
    <glyph glyph-name="aring" unicode="&#xe5;" horiz-adv-x="345" 
d="M16 187c0 68 15 109 90 135c80 28 92 32 92 83c0 26 -4 36 -24 36h-8c-20 0 -23 -10 -23 -36v-43h-119v57c0 108 26 138 124 138h52c97 0 124 -30 124 -138v-326c0 -32 1 -60 9 -93h-120c-6 11 -9 32 -11 65c-8 -44 -31 -70 -85 -70h-22c-61 0 -79 29 -79 103v89z
M198 150v99l-15 -5c-37 -12 -41 -25 -41 -61v-37c0 -25 3 -35 23 -35h7c20 0 26 13 26 39zM197 650c0 14 -10 24 -24 24s-24 -10 -24 -24c0 -15 10 -25 24 -25s24 10 24 25zM99 650c0 43 34 71 74 71c41 0 74 -28 74 -71c0 -44 -33 -72 -74 -72c-40 0 -74 28 -74 72z" />
    <glyph glyph-name="ae" unicode="&#xe6;" horiz-adv-x="517" 
d="M106 322c80 27 92 32 92 83c0 26 -4 36 -24 36h-8c-20 0 -23 -10 -23 -36v-43h-119v57c0 108 26 138 124 138h11c59 0 88 -12 101 -46c14 34 42 46 103 46h11c98 0 124 -30 124 -138v-188h-174v-84c0 -26 3 -36 23 -36h9c20 0 23 10 23 36v41h119v-55
c0 -107 -26 -138 -124 -138h-52c-76 0 -108 18 -119 74c-8 -47 -31 -74 -86 -74h-22c-61 0 -79 29 -79 103v89c0 68 15 109 90 135zM379 341v64c0 26 -3 36 -23 36h-9c-20 0 -23 -10 -23 -36v-64h55zM198 150v99l-15 -5c-37 -12 -41 -25 -41 -61v-37c0 -25 3 -35 23 -35h7
c20 0 26 13 26 39z" />
    <glyph glyph-name="ccedilla" unicode="&#xe7;" horiz-adv-x="338" 
d="M183 -80c0 17 -10 27 -49 27v48c-91 2 -115 34 -115 138v286c0 108 26 138 124 138h53c98 0 123 -30 123 -138v-92h-118v78c0 26 -4 36 -24 36h-8c-20 0 -24 -10 -24 -36v-258c0 -26 4 -36 24 -36h8c20 0 24 10 24 36v88h118v-102c0 -107 -25 -138 -123 -138h-19v-28
c59 0 85 -9 85 -46c0 -29 -6 -53 -99 -53c-84 0 -91 16 -91 56h66c0 -17 1 -26 22 -26c20 0 23 7 23 22z" />
    <glyph glyph-name="egrave" unicode="&#xe8;" horiz-adv-x="338" 
d="M201 147v41h118v-55c0 -107 -25 -138 -123 -138h-53c-98 0 -124 31 -124 138v286c0 108 26 138 124 138h53c98 0 123 -30 123 -138v-188h-174v-84c0 -26 4 -36 24 -36h8c20 0 24 10 24 36zM145 405v-64h56v64c0 26 -4 36 -24 36h-8c-20 0 -24 -10 -24 -36zM175 698
l51 -119h-77l-82 119h108z" />
    <glyph glyph-name="eacute" unicode="&#xe9;" horiz-adv-x="338" 
d="M201 147v41h118v-55c0 -107 -25 -138 -123 -138h-53c-98 0 -124 31 -124 138v286c0 108 26 138 124 138h53c98 0 123 -30 123 -138v-188h-174v-84c0 -26 4 -36 24 -36h8c20 0 24 10 24 36zM145 405v-64h56v64c0 26 -4 36 -24 36h-8c-20 0 -24 -10 -24 -36zM119 579
l51 119h107l-81 -119h-77z" />
    <glyph glyph-name="ecircumflex" unicode="&#xea;" horiz-adv-x="338" 
d="M201 147v41h118v-55c0 -107 -25 -138 -123 -138h-53c-98 0 -124 31 -124 138v286c0 108 26 138 124 138h53c98 0 123 -30 123 -138v-188h-174v-84c0 -26 4 -36 24 -36h8c20 0 24 10 24 36zM145 405v-64h56v64c0 26 -4 36 -24 36h-8c-20 0 -24 -10 -24 -36zM216 698
l69 -119h-78l-35 52l-35 -52h-78l69 119h88z" />
    <glyph glyph-name="edieresis" unicode="&#xeb;" horiz-adv-x="338" 
d="M201 147v41h118v-55c0 -107 -25 -138 -123 -138h-53c-98 0 -124 31 -124 138v286c0 108 26 138 124 138h53c98 0 123 -30 123 -138v-188h-174v-84c0 -26 4 -36 24 -36h8c20 0 24 10 24 36zM145 405v-64h56v64c0 26 -4 36 -24 36h-8c-20 0 -24 -10 -24 -36zM295 586h-107
v105h107v-105zM153 586h-107v105h107v-105z" />
    <glyph glyph-name="igrave" unicode="&#xec;" horiz-adv-x="172" 
d="M89 698l51 -119h-77l-82 119h108zM149 552v-552h-126v552h126z" />
    <glyph glyph-name="iacute" unicode="&#xed;" horiz-adv-x="172" 
d="M32 579l51 119h107l-81 -119h-77zM149 552v-552h-126v552h126z" />
    <glyph glyph-name="icircumflex" unicode="&#xee;" horiz-adv-x="172" 
d="M149 552v-552h-126v552h126zM130 698l69 -119h-78l-35 52l-35 -52h-78l69 119h88z" />
    <glyph glyph-name="idieresis" unicode="&#xef;" horiz-adv-x="172" 
d="M209 586h-107v105h107v-105zM67 586h-107v105h107v-105zM149 552v-552h-126v552h126z" />
    <glyph glyph-name="eth" unicode="&#xf0;" horiz-adv-x="350" 
d="M327 561v-428c0 -107 -27 -138 -124 -138h-60c-98 0 -124 31 -124 138v321c0 74 18 103 79 103h22c50 0 73 -22 83 -61v64c0 9 -1 17 -2 23l-23 -21l-14 14l25 23c-4 2 -8 3 -14 3h-28v98h55c36 0 63 -5 82 -16l18 16h27l-30 -27c21 -22 28 -57 28 -112zM145 147
c0 -26 4 -36 24 -36h8c20 0 24 10 24 36v255c0 26 -6 39 -26 39h-7c-20 0 -23 -10 -23 -35v-259z" />
    <glyph glyph-name="ntilde" unicode="&#xf1;" horiz-adv-x="352" 
d="M331 0h-127v406c0 25 -3 35 -22 35h-8c-19 0 -25 -13 -25 -39v-402h-126v552h120v-75c7 50 29 80 86 80h23c61 0 79 -29 79 -103v-454zM234 687h56c0 -74 -22 -99 -72 -99c-42 0 -57 24 -81 24c-15 0 -19 -7 -19 -24h-57c0 75 22 99 73 99c43 0 58 -26 82 -26
c14 0 18 11 18 26z" />
    <glyph glyph-name="ograve" unicode="&#xf2;" horiz-adv-x="346" 
d="M327 419v-286c0 -107 -27 -138 -124 -138h-60c-98 0 -124 31 -124 138v286c0 108 26 138 124 138h60c97 0 124 -30 124 -138zM145 405v-258c0 -26 4 -36 24 -36h8c20 0 24 10 24 36v258c0 26 -4 36 -24 36h-8c-20 0 -24 -10 -24 -36zM176 698l51 -119h-77l-82 119h108z
" />
    <glyph glyph-name="oacute" unicode="&#xf3;" horiz-adv-x="346" 
d="M327 419v-286c0 -107 -27 -138 -124 -138h-60c-98 0 -124 31 -124 138v286c0 108 26 138 124 138h60c97 0 124 -30 124 -138zM145 405v-258c0 -26 4 -36 24 -36h8c20 0 24 10 24 36v258c0 26 -4 36 -24 36h-8c-20 0 -24 -10 -24 -36zM119 579l51 119h107l-81 -119h-77z
" />
    <glyph glyph-name="ocircumflex" unicode="&#xf4;" horiz-adv-x="346" 
d="M327 419v-286c0 -107 -27 -138 -124 -138h-60c-98 0 -124 31 -124 138v286c0 108 26 138 124 138h60c97 0 124 -30 124 -138zM145 405v-258c0 -26 4 -36 24 -36h8c20 0 24 10 24 36v258c0 26 -4 36 -24 36h-8c-20 0 -24 -10 -24 -36zM217 698l69 -119h-78l-35 52l-35 -52
h-78l69 119h88z" />
    <glyph glyph-name="otilde" unicode="&#xf5;" horiz-adv-x="346" 
d="M327 419v-286c0 -107 -27 -138 -124 -138h-60c-98 0 -124 31 -124 138v286c0 108 26 138 124 138h60c97 0 124 -30 124 -138zM145 405v-258c0 -26 4 -36 24 -36h8c20 0 24 10 24 36v258c0 26 -4 36 -24 36h-8c-20 0 -24 -10 -24 -36zM231 687h56c0 -74 -22 -99 -72 -99
c-42 0 -57 24 -81 24c-15 0 -19 -7 -19 -24h-57c0 75 22 99 73 99c43 0 58 -26 82 -26c14 0 18 11 18 26z" />
    <glyph glyph-name="odieresis" unicode="&#xf6;" horiz-adv-x="346" 
d="M327 419v-286c0 -107 -27 -138 -124 -138h-60c-98 0 -124 31 -124 138v286c0 108 26 138 124 138h60c97 0 124 -30 124 -138zM145 405v-258c0 -26 4 -36 24 -36h8c20 0 24 10 24 36v258c0 26 -4 36 -24 36h-8c-20 0 -24 -10 -24 -36zM296 586h-107v105h107v-105zM154 586
h-107v105h107v-105z" />
    <glyph glyph-name="divide" unicode="&#xf7;" 
d="M338 406v-112h-318v112h318zM120 146v113h119v-113h-119zM120 442v113h119v-113h-119z" />
    <glyph glyph-name="oslash" unicode="&#xf8;" horiz-adv-x="346" 
d="M327 419v-286c0 -107 -27 -138 -124 -138h-74l-8 -25h-102l21 59c-16 21 -21 54 -21 104v286c0 108 26 138 124 138h72l10 30h102l-22 -63c16 -22 22 -55 22 -105zM177 111c20 0 24 10 24 36v123l-40 -159h16zM145 405v-119l38 154c-2 1 -4 1 -6 1h-8
c-20 0 -24 -10 -24 -36z" />
    <glyph glyph-name="ugrave" unicode="&#xf9;" horiz-adv-x="352" 
d="M329 93c0 -32 1 -60 9 -93h-120c-6 11 -9 32 -11 64c-8 -44 -31 -69 -84 -69h-23c-61 0 -78 29 -78 103v454h126v-406c0 -25 3 -35 22 -35h8c19 0 25 13 25 39v402h126v-459zM178 698l51 -119h-77l-82 119h108z" />
    <glyph glyph-name="uacute" unicode="&#xfa;" horiz-adv-x="352" 
d="M329 93c0 -32 1 -60 9 -93h-120c-6 11 -9 32 -11 64c-8 -44 -31 -69 -84 -69h-23c-61 0 -78 29 -78 103v454h126v-406c0 -25 3 -35 22 -35h8c19 0 25 13 25 39v402h126v-459zM122 579l51 119h107l-81 -119h-77z" />
    <glyph glyph-name="ucircumflex" unicode="&#xfb;" horiz-adv-x="352" 
d="M329 93c0 -32 1 -60 9 -93h-120c-6 11 -9 32 -11 64c-8 -44 -31 -69 -84 -69h-23c-61 0 -78 29 -78 103v454h126v-406c0 -25 3 -35 22 -35h8c19 0 25 13 25 39v402h126v-459zM220 698l69 -119h-78l-35 52l-35 -52h-78l69 119h88z" />
    <glyph glyph-name="udieresis" unicode="&#xfc;" horiz-adv-x="352" 
d="M329 93c0 -32 1 -60 9 -93h-120c-6 11 -9 32 -11 64c-8 -44 -31 -69 -84 -69h-23c-61 0 -78 29 -78 103v454h126v-406c0 -25 3 -35 22 -35h8c19 0 25 13 25 39v402h126v-459zM299 586h-107v105h107v-105zM157 586h-107v105h107v-105z" />
    <glyph glyph-name="yacute" unicode="&#xfd;" horiz-adv-x="330" 
d="M240 -30c-8 -60 -44 -97 -116 -97h-109v94h49c16 0 20 7 20 22v20l-82 543h129l18 -138c10 -77 19 -198 23 -270c4 72 12 193 23 270l19 138h114zM116 579l51 119h107l-81 -119h-77z" />
    <glyph glyph-name="thorn" unicode="&#xfe;" horiz-adv-x="350" 
d="M204 406c0 25 -3 35 -22 35h-8c-19 0 -25 -13 -25 -39v-252c0 -26 6 -39 25 -39h8c19 0 22 10 22 35v260zM149 -127h-126v827h126v-196c11 34 34 53 80 53h23c61 0 79 -29 79 -103v-356c0 -74 -18 -103 -79 -103h-23c-46 0 -69 19 -80 52v-174z" />
    <glyph glyph-name="ydieresis" unicode="&#xff;" horiz-adv-x="330" 
d="M240 -30c-8 -60 -44 -97 -116 -97h-109v94h49c16 0 20 7 20 22v20l-82 543h129l18 -138c10 -77 19 -198 23 -270c4 72 12 193 23 270l19 138h114zM292 586h-107v105h107v-105zM150 586h-107v105h107v-105z" />
    <glyph glyph-name="Amacron" unicode="&#x100;" horiz-adv-x="375" 
d="M230 0l-11 91h-79l-10 -91h-126l87 700h193l86 -700h-140zM179 597c-6 -111 -15 -235 -27 -382h54c-12 147 -21 271 -27 382zM299 731h-222v75h222v-75z" />
    <glyph glyph-name="amacron" unicode="&#x101;" horiz-adv-x="345" 
d="M16 187c0 68 15 109 90 135c80 28 92 32 92 83c0 26 -4 36 -24 36h-8c-20 0 -23 -10 -23 -36v-43h-119v57c0 108 26 138 124 138h52c97 0 124 -30 124 -138v-326c0 -32 1 -60 9 -93h-120c-6 11 -9 32 -11 65c-8 -44 -31 -70 -85 -70h-22c-61 0 -79 29 -79 103v89z
M198 150v99l-15 -5c-37 -12 -41 -25 -41 -61v-37c0 -25 3 -35 23 -35h7c20 0 26 13 26 39zM284 589h-222v75h222v-75z" />
    <glyph glyph-name="Abreve" unicode="&#x102;" horiz-adv-x="375" 
d="M230 0l-11 91h-79l-10 -91h-126l87 700h193l86 -700h-140zM179 597c-6 -111 -15 -235 -27 -382h54c-12 147 -21 271 -27 382zM188 790c36 0 44 12 44 47h65c0 -67 -10 -117 -109 -117s-109 50 -109 117h65c0 -35 8 -47 44 -47z" />
    <glyph glyph-name="abreve" unicode="&#x103;" horiz-adv-x="345" 
d="M16 187c0 68 15 109 90 135c80 28 92 32 92 83c0 26 -4 36 -24 36h-8c-20 0 -23 -10 -23 -36v-43h-119v57c0 108 26 138 124 138h52c97 0 124 -30 124 -138v-326c0 -32 1 -60 9 -93h-120c-6 11 -9 32 -11 65c-8 -44 -31 -70 -85 -70h-22c-61 0 -79 29 -79 103v89z
M198 150v99l-15 -5c-37 -12 -41 -25 -41 -61v-37c0 -25 3 -35 23 -35h7c20 0 26 13 26 39zM173 648c36 0 44 12 44 47h65c0 -67 -10 -117 -109 -117s-109 50 -109 117h65c0 -35 8 -47 44 -47z" />
    <glyph glyph-name="Aogonek" unicode="&#x104;" horiz-adv-x="375" 
d="M230 0l-11 91h-79l-10 -91h-126l87 700h193l86 -700h-45c-22 -19 -33 -32 -33 -52c0 -18 16 -25 42 -25c11 0 23 1 36 5v-52c-19 -4 -44 -8 -66 -8c-74 0 -95 15 -95 51c0 44 40 62 75 81h-54zM179 597c-6 -111 -15 -235 -27 -382h54c-12 147 -21 271 -27 382z" />
    <glyph glyph-name="aogonek" unicode="&#x105;" horiz-adv-x="345" 
d="M333 -72v-52c-19 -4 -44 -8 -66 -8c-74 0 -95 15 -95 51c0 44 40 62 75 81h-34c-6 11 -9 32 -11 65c-8 -44 -31 -70 -85 -70h-22c-61 0 -79 29 -79 103v89c0 68 15 109 90 135c80 28 92 32 92 83c0 26 -4 36 -24 36h-8c-20 0 -23 -10 -23 -36v-43h-119v57
c0 108 26 138 124 138h52c97 0 124 -30 124 -138v-326c0 -32 1 -60 9 -93h-45c-22 -19 -33 -32 -33 -52c0 -18 16 -25 42 -25c11 0 23 1 36 5zM198 150v99l-15 -5c-37 -12 -41 -25 -41 -61v-37c0 -25 3 -35 23 -35h7c20 0 26 13 26 39z" />
    <glyph glyph-name="Cacute" unicode="&#x106;" horiz-adv-x="377" 
d="M161 533v-366c0 -30 3 -40 27 -40h10c24 0 27 10 27 40v132h131v-149c0 -120 -28 -155 -138 -155h-58c-110 0 -139 35 -139 155v400c0 120 29 155 139 155h58c110 0 138 -35 138 -155v-119h-131v102c0 30 -3 40 -27 40h-10c-24 0 -27 -10 -27 -40zM138 721l51 119h107
l-81 -119h-77z" />
    <glyph glyph-name="cacute" unicode="&#x107;" horiz-adv-x="338" 
d="M201 147v88h118v-102c0 -107 -25 -138 -123 -138h-53c-98 0 -124 31 -124 138v286c0 108 26 138 124 138h53c98 0 123 -30 123 -138v-92h-118v78c0 26 -4 36 -24 36h-8c-20 0 -24 -10 -24 -36v-258c0 -26 4 -36 24 -36h8c20 0 24 10 24 36zM118 579l51 119h107l-81 -119
h-77z" />
    <glyph glyph-name="Ccircumflex" unicode="&#x108;" horiz-adv-x="377" 
d="M161 533v-366c0 -30 3 -40 27 -40h10c24 0 27 10 27 40v132h131v-149c0 -120 -28 -155 -138 -155h-58c-110 0 -139 35 -139 155v400c0 120 29 155 139 155h58c110 0 138 -35 138 -155v-119h-131v102c0 30 -3 40 -27 40h-10c-24 0 -27 -10 -27 -40zM235 840l69 -119h-78
l-35 52l-35 -52h-78l69 119h88z" />
    <glyph glyph-name="ccircumflex" unicode="&#x109;" horiz-adv-x="338" 
d="M201 147v88h118v-102c0 -107 -25 -138 -123 -138h-53c-98 0 -124 31 -124 138v286c0 108 26 138 124 138h53c98 0 123 -30 123 -138v-92h-118v78c0 26 -4 36 -24 36h-8c-20 0 -24 -10 -24 -36v-258c0 -26 4 -36 24 -36h8c20 0 24 10 24 36zM216 698l69 -119h-78l-35 52
l-35 -52h-78l69 119h88z" />
    <glyph glyph-name="Cdotaccent" unicode="&#x10a;" horiz-adv-x="377" 
d="M161 533v-366c0 -30 3 -40 27 -40h10c24 0 27 10 27 40v132h131v-149c0 -120 -28 -155 -138 -155h-58c-110 0 -139 35 -139 155v400c0 120 29 155 139 155h58c110 0 138 -35 138 -155v-119h-131v102c0 30 -3 40 -27 40h-10c-24 0 -27 -10 -27 -40zM245 728h-108v105h108
v-105z" />
    <glyph glyph-name="cdotaccent" unicode="&#x10b;" horiz-adv-x="338" 
d="M201 147v88h118v-102c0 -107 -25 -138 -123 -138h-53c-98 0 -124 31 -124 138v286c0 108 26 138 124 138h53c98 0 123 -30 123 -138v-92h-118v78c0 26 -4 36 -24 36h-8c-20 0 -24 -10 -24 -36v-258c0 -26 4 -36 24 -36h8c20 0 24 10 24 36zM226 586h-108v105h108v-105z
" />
    <glyph glyph-name="Ccaron" unicode="&#x10c;" horiz-adv-x="377" 
d="M161 533v-366c0 -30 3 -40 27 -40h10c24 0 27 10 27 40v132h131v-149c0 -120 -28 -155 -138 -155h-58c-110 0 -139 35 -139 155v400c0 120 29 155 139 155h58c110 0 138 -35 138 -155v-119h-131v102c0 30 -3 40 -27 40h-10c-24 0 -27 -10 -27 -40zM304 840l-69 -119h-88
l-69 119h78l35 -52l35 52h78z" />
    <glyph glyph-name="ccaron" unicode="&#x10d;" horiz-adv-x="338" 
d="M201 147v88h118v-102c0 -107 -25 -138 -123 -138h-53c-98 0 -124 31 -124 138v286c0 108 26 138 124 138h53c98 0 123 -30 123 -138v-92h-118v78c0 26 -4 36 -24 36h-8c-20 0 -24 -10 -24 -36v-258c0 -26 4 -36 24 -36h8c20 0 24 10 24 36zM285 698l-69 -119h-88l-69 119
h78l35 -52l35 52h78z" />
    <glyph glyph-name="Dcaron" unicode="&#x10e;" horiz-adv-x="391" 
d="M26 0v700h205c110 0 138 -35 138 -155v-390c0 -120 -28 -155 -138 -155h-205zM166 132h37c23 0 26 10 26 40v356c0 30 -3 40 -26 40h-37v-436zM303 840l-69 -119h-88l-69 119h78l35 -52l35 52h78z" />
    <glyph glyph-name="dcaron" unicode="&#x10f;" horiz-adv-x="480" 
d="M359 560v140h114v-140l-100 -85l-5 7l64 78h-73zM202 150v252c0 26 -7 39 -26 39h-7c-20 0 -23 -10 -23 -35v-260c0 -25 3 -35 23 -35h7c19 0 26 13 26 39zM328 93c0 -32 0 -60 9 -93h-120c-6 10 -10 31 -12 62c-9 -43 -32 -67 -84 -67h-22c-61 0 -79 29 -79 103v356
c0 74 18 103 79 103h22c46 0 70 -20 81 -54v197h126v-607z" />
    <glyph glyph-name="Dcroat" unicode="&#x110;" horiz-adv-x="391" 
d="M26 0v316h-21v103h21v281h205c110 0 138 -35 138 -155v-390c0 -120 -28 -155 -138 -155h-205zM166 132h37c23 0 26 10 26 40v356c0 30 -3 40 -26 40h-37v-149h33v-103h-33v-184z" />
    <glyph glyph-name="dcroat" unicode="&#x111;" horiz-adv-x="350" 
d="M328 93c0 -32 0 -60 9 -93h-120c-6 10 -10 31 -12 62c-9 -43 -32 -67 -84 -67h-22c-61 0 -79 29 -79 103v356c0 74 18 103 79 103h22c46 0 70 -20 81 -54v71h-75v85h75v41h126v-41h17v-85h-17v-481zM202 150v252c0 26 -7 39 -26 39h-7c-20 0 -23 -10 -23 -35v-260
c0 -25 3 -35 23 -35h7c19 0 26 13 26 39z" />
    <glyph glyph-name="Emacron" unicode="&#x112;" horiz-adv-x="302" 
d="M166 568v-138h96v-132h-96v-166h122v-132h-262v700h262v-132h-122zM269 731h-222v75h222v-75z" />
    <glyph glyph-name="emacron" unicode="&#x113;" horiz-adv-x="338" 
d="M201 147v41h118v-55c0 -107 -25 -138 -123 -138h-53c-98 0 -124 31 -124 138v286c0 108 26 138 124 138h53c98 0 123 -30 123 -138v-188h-174v-84c0 -26 4 -36 24 -36h8c20 0 24 10 24 36zM145 405v-64h56v64c0 26 -4 36 -24 36h-8c-20 0 -24 -10 -24 -36zM283 589h-222
v75h222v-75z" />
    <glyph glyph-name="Ebreve" unicode="&#x114;" horiz-adv-x="302" 
d="M166 568v-138h96v-132h-96v-166h122v-132h-262v700h262v-132h-122zM158 790c36 0 44 12 44 47h65c0 -67 -10 -117 -109 -117s-109 50 -109 117h65c0 -35 8 -47 44 -47z" />
    <glyph glyph-name="ebreve" unicode="&#x115;" horiz-adv-x="338" 
d="M201 147v41h118v-55c0 -107 -25 -138 -123 -138h-53c-98 0 -124 31 -124 138v286c0 108 26 138 124 138h53c98 0 123 -30 123 -138v-188h-174v-84c0 -26 4 -36 24 -36h8c20 0 24 10 24 36zM145 405v-64h56v64c0 26 -4 36 -24 36h-8c-20 0 -24 -10 -24 -36zM172 648
c36 0 44 12 44 47h65c0 -67 -10 -117 -109 -117s-109 50 -109 117h65c0 -35 8 -47 44 -47z" />
    <glyph glyph-name="Edotaccent" unicode="&#x116;" horiz-adv-x="302" 
d="M166 568v-138h96v-132h-96v-166h122v-132h-262v700h262v-132h-122zM212 728h-108v105h108v-105z" />
    <glyph glyph-name="edotaccent" unicode="&#x117;" horiz-adv-x="338" 
d="M201 147v41h118v-55c0 -107 -25 -138 -123 -138h-53c-98 0 -124 31 -124 138v286c0 108 26 138 124 138h53c98 0 123 -30 123 -138v-188h-174v-84c0 -26 4 -36 24 -36h8c20 0 24 10 24 36zM145 405v-64h56v64c0 26 -4 36 -24 36h-8c-20 0 -24 -10 -24 -36zM226 586h-108
v105h108v-105z" />
    <glyph glyph-name="Eogonek" unicode="&#x118;" horiz-adv-x="302" 
d="M288 -72v-52c-19 -4 -44 -8 -66 -8c-74 0 -95 15 -95 51c0 44 48 59 105 81h-206v700h262v-132h-122v-138h96v-132h-96v-166h122v-132h-16c-47 -21 -62 -34 -62 -54c0 -18 16 -23 42 -23c11 0 23 1 36 5z" />
    <glyph glyph-name="eogonek" unicode="&#x119;" horiz-adv-x="338" 
d="M319 -72v-52c-19 -4 -44 -8 -66 -8c-74 0 -95 15 -95 51s21 58 57 77c-6 -1 -12 -1 -19 -1h-53c-98 0 -124 31 -124 138v286c0 108 26 138 124 138h53c98 0 123 -30 123 -138v-188h-174v-84c0 -26 4 -36 24 -36h8c20 0 24 10 24 36v41h118v-55c0 -76 -12 -114 -54 -129
c-23 -24 -24 -40 -24 -58s16 -23 42 -23c11 0 23 1 36 5zM145 405v-64h56v64c0 26 -4 36 -24 36h-8c-20 0 -24 -10 -24 -36z" />
    <glyph glyph-name="Ecaron" unicode="&#x11a;" horiz-adv-x="302" 
d="M166 568v-138h96v-132h-96v-166h122v-132h-262v700h262v-132h-122zM271 840l-69 -119h-88l-69 119h78l35 -52l35 52h78z" />
    <glyph glyph-name="ecaron" unicode="&#x11b;" horiz-adv-x="338" 
d="M201 147v41h118v-55c0 -107 -25 -138 -123 -138h-53c-98 0 -124 31 -124 138v286c0 108 26 138 124 138h53c98 0 123 -30 123 -138v-188h-174v-84c0 -26 4 -36 24 -36h8c20 0 24 10 24 36zM145 405v-64h56v64c0 26 -4 36 -24 36h-8c-20 0 -24 -10 -24 -36zM285 698
l-69 -119h-88l-69 119h78l35 -52l35 52h78z" />
    <glyph glyph-name="Gcircumflex" unicode="&#x11c;" horiz-adv-x="378" 
d="M193 276v132h163v-258c0 -120 -28 -155 -138 -155h-58c-110 0 -139 35 -139 155v400c0 120 29 155 139 155h58c110 0 138 -35 138 -155v-95h-131v78c0 30 -3 40 -27 40h-10c-24 0 -27 -10 -27 -40v-366c0 -30 3 -40 27 -40h10c24 0 27 10 27 40v109h-32zM235 840l69 -119
h-78l-35 52l-35 -52h-78l69 119h88z" />
    <glyph glyph-name="gcircumflex" unicode="&#x11d;" horiz-adv-x="350" 
d="M313 292c0 -107 -27 -139 -125 -139h-53c-17 0 -24 -5 -24 -22v-2c0 -16 9 -20 27 -20h77c85 0 132 -16 132 -107v-15c0 -90 -33 -119 -131 -119h-109c-54 0 -90 20 -90 78v20c0 29 11 46 31 56c-17 17 -22 40 -22 68v9c0 35 12 56 32 69c-32 18 -42 56 -42 124v127
c0 108 25 138 124 138h40c56 0 88 -10 105 -39c5 25 18 39 45 39h18v-113h-20c-12 0 -15 -8 -15 -25v-127zM136 420v-129c0 -26 4 -36 24 -36h8c21 0 24 10 24 36v129c0 25 -3 35 -24 35h-8c-20 0 -24 -10 -24 -35zM247 -31v5c0 18 -11 22 -33 22h-78c-21 0 -30 -6 -30 -23
v-4c0 -20 10 -24 31 -24h77c22 0 33 3 33 24zM211 698l69 -119h-78l-35 52l-35 -52h-78l69 119h88z" />
    <glyph glyph-name="Gbreve" unicode="&#x11e;" horiz-adv-x="378" 
d="M193 276v132h163v-258c0 -120 -28 -155 -138 -155h-58c-110 0 -139 35 -139 155v400c0 120 29 155 139 155h58c110 0 138 -35 138 -155v-95h-131v78c0 30 -3 40 -27 40h-10c-24 0 -27 -10 -27 -40v-366c0 -30 3 -40 27 -40h10c24 0 27 10 27 40v109h-32zM191 790
c36 0 44 12 44 47h65c0 -67 -10 -117 -109 -117s-109 50 -109 117h65c0 -35 8 -47 44 -47z" />
    <glyph glyph-name="gbreve" unicode="&#x11f;" horiz-adv-x="350" 
d="M313 292c0 -107 -27 -139 -125 -139h-53c-17 0 -24 -5 -24 -22v-2c0 -16 9 -20 27 -20h77c85 0 132 -16 132 -107v-15c0 -90 -33 -119 -131 -119h-109c-54 0 -90 20 -90 78v20c0 29 11 46 31 56c-17 17 -22 40 -22 68v9c0 35 12 56 32 69c-32 18 -42 56 -42 124v127
c0 108 25 138 124 138h40c56 0 88 -10 105 -39c5 25 18 39 45 39h18v-113h-20c-12 0 -15 -8 -15 -25v-127zM136 420v-129c0 -26 4 -36 24 -36h8c21 0 24 10 24 36v129c0 25 -3 35 -24 35h-8c-20 0 -24 -10 -24 -35zM247 -31v5c0 18 -11 22 -33 22h-78c-21 0 -30 -6 -30 -23
v-4c0 -20 10 -24 31 -24h77c22 0 33 3 33 24zM167 648c36 0 44 12 44 47h65c0 -67 -10 -117 -109 -117s-109 50 -109 117h65c0 -35 8 -47 44 -47z" />
    <glyph glyph-name="Gdotaccent" unicode="&#x120;" horiz-adv-x="378" 
d="M193 276v132h163v-258c0 -120 -28 -155 -138 -155h-58c-110 0 -139 35 -139 155v400c0 120 29 155 139 155h58c110 0 138 -35 138 -155v-95h-131v78c0 30 -3 40 -27 40h-10c-24 0 -27 -10 -27 -40v-366c0 -30 3 -40 27 -40h10c24 0 27 10 27 40v109h-32zM245 728h-108
v105h108v-105z" />
    <glyph glyph-name="gdotaccent" unicode="&#x121;" horiz-adv-x="350" 
d="M313 292c0 -107 -27 -139 -125 -139h-53c-17 0 -24 -5 -24 -22v-2c0 -16 9 -20 27 -20h77c85 0 132 -16 132 -107v-15c0 -90 -33 -119 -131 -119h-109c-54 0 -90 20 -90 78v20c0 29 11 46 31 56c-17 17 -22 40 -22 68v9c0 35 12 56 32 69c-32 18 -42 56 -42 124v127
c0 108 25 138 124 138h40c56 0 88 -10 105 -39c5 25 18 39 45 39h18v-113h-20c-12 0 -15 -8 -15 -25v-127zM136 420v-129c0 -26 4 -36 24 -36h8c21 0 24 10 24 36v129c0 25 -3 35 -24 35h-8c-20 0 -24 -10 -24 -35zM247 -31v5c0 18 -11 22 -33 22h-78c-21 0 -30 -6 -30 -23
v-4c0 -20 10 -24 31 -24h77c22 0 33 3 33 24zM221 586h-108v105h108v-105z" />
    <glyph glyph-name="uni0122" unicode="&#x122;" horiz-adv-x="378" 
d="M193 276v132h163v-258c0 -120 -28 -155 -138 -155h-58c-110 0 -139 35 -139 155v400c0 120 29 155 139 155h58c110 0 138 -35 138 -155v-95h-131v78c0 30 -3 40 -27 40h-10c-24 0 -27 -10 -27 -40v-366c0 -30 3 -40 27 -40h10c24 0 27 10 27 40v109h-32zM137 -141v105
h107v-105l-93 -77l-6 6l60 71h-68z" />
    <glyph glyph-name="uni0123" unicode="&#x123;" horiz-adv-x="350" 
d="M221 691v-105h-107v105l93 77l6 -6l-60 -71h68zM313 292c0 -107 -27 -139 -125 -139h-53c-17 0 -24 -5 -24 -22v-2c0 -16 9 -20 27 -20h77c85 0 132 -16 132 -107v-15c0 -90 -33 -119 -131 -119h-109c-54 0 -90 20 -90 78v20c0 29 11 46 31 56c-17 17 -22 40 -22 68v9
c0 35 12 56 32 69c-32 18 -42 56 -42 124v127c0 108 25 138 124 138h40c56 0 88 -10 105 -39c5 25 18 39 45 39h18v-113h-20c-12 0 -15 -8 -15 -25v-127zM136 420v-129c0 -26 4 -36 24 -36h8c21 0 24 10 24 36v129c0 25 -3 35 -24 35h-8c-20 0 -24 -10 -24 -35zM247 -31v5
c0 18 -11 22 -33 22h-78c-21 0 -30 -6 -30 -23v-4c0 -20 10 -24 31 -24h77c22 0 33 3 33 24z" />
    <glyph glyph-name="Hcircumflex" unicode="&#x124;" horiz-adv-x="395" 
d="M166 0h-140v700h140v-270h63v270h140v-700h-140v298h-63v-298zM242 840l69 -119h-78l-35 52l-35 -52h-78l69 119h88z" />
    <glyph glyph-name="hcircumflex" unicode="&#x125;" horiz-adv-x="352" 
d="M331 0h-127v406c0 25 -3 35 -22 35h-8c-19 0 -25 -13 -25 -39v-402h-126v700h126v-196c11 34 34 53 80 53h23c61 0 79 -29 79 -103v-454zM130 840l69 -119h-78l-35 52l-35 -52h-78l69 119h88z" />
    <glyph glyph-name="Hbar" unicode="&#x126;" horiz-adv-x="395" 
d="M166 0h-140v510h-21v104h21v86h140v-86h63v86h140v-86h21v-104h-21v-510h-140v298h-63v-298zM166 430h63v80h-63v-80z" />
    <glyph glyph-name="hbar" unicode="&#x127;" horiz-adv-x="352" 
d="M331 0h-127v406c0 25 -3 35 -22 35h-8c-19 0 -25 -13 -25 -39v-402h-126v574h-18v85h18v41h126v-41h74v-85h-74v-70c11 34 34 53 80 53h23c61 0 79 -29 79 -103v-454z" />
    <glyph glyph-name="Itilde" unicode="&#x128;" horiz-adv-x="192" 
d="M26 0v700h140v-700h-140zM154 829h56c0 -74 -22 -99 -72 -99c-42 0 -57 24 -81 24c-15 0 -19 -7 -19 -24h-57c0 75 22 99 73 99c43 0 58 -26 82 -26c14 0 18 11 18 26z" />
    <glyph glyph-name="itilde" unicode="&#x129;" horiz-adv-x="172" 
d="M144 687h56c0 -74 -22 -99 -72 -99c-42 0 -57 24 -81 24c-15 0 -19 -7 -19 -24h-57c0 75 22 99 73 99c43 0 58 -26 82 -26c14 0 18 11 18 26zM149 552v-552h-126v552h126z" />
    <glyph glyph-name="Imacron" unicode="&#x12a;" horiz-adv-x="192" 
d="M26 0v700h140v-700h-140zM207 731h-222v75h222v-75z" />
    <glyph glyph-name="imacron" unicode="&#x12b;" horiz-adv-x="172" 
d="M197 589h-222v75h222v-75zM149 552v-552h-126v552h126z" />
    <glyph glyph-name="Ibreve" unicode="&#x12c;" horiz-adv-x="192" 
d="M26 0v700h140v-700h-140zM96 790c36 0 44 12 44 47h65c0 -67 -10 -117 -109 -117s-109 50 -109 117h65c0 -35 8 -47 44 -47z" />
    <glyph glyph-name="ibreve" unicode="&#x12d;" horiz-adv-x="172" 
d="M86 648c36 0 44 12 44 47h65c0 -67 -10 -117 -109 -117s-109 50 -109 117h65c0 -35 8 -47 44 -47zM149 552v-552h-126v552h126z" />
    <glyph glyph-name="Iogonek" unicode="&#x12e;" horiz-adv-x="192" 
d="M26 0v700h140v-700h-44c-20 -19 -29 -32 -29 -52c0 -18 16 -25 42 -25c11 0 23 1 36 5v-52c-19 -4 -44 -8 -66 -8c-74 0 -95 15 -95 51c0 44 37 63 70 81h-54z" />
    <glyph glyph-name="iogonek" unicode="&#x12f;" horiz-adv-x="172" 
d="M165 -72v-52c-19 -4 -44 -8 -66 -8c-74 0 -95 15 -95 51c0 44 37 63 70 81h-51v552h126v-552h-33c-20 -19 -29 -32 -29 -52c0 -18 16 -25 42 -25c11 0 23 1 36 5zM23 596v104h126v-104h-126z" />
    <glyph glyph-name="Idotaccent" unicode="&#x130;" horiz-adv-x="192" 
d="M26 0v700h140v-700h-140zM150 728h-108v105h108v-105z" />
    <glyph glyph-name="dotlessi" unicode="&#x131;" horiz-adv-x="172" 
d="M149 552v-552h-126v552h126z" />
    <glyph glyph-name="IJ" unicode="&#x132;" horiz-adv-x="559" 
d="M26 0v700h140v-700h-140zM332 299v-132c0 -30 3 -40 27 -40h10c23 0 27 10 27 40v533h139v-550c0 -120 -28 -155 -138 -155h-58c-110 0 -139 35 -139 155v149h132z" />
    <glyph glyph-name="ij" unicode="&#x133;" horiz-adv-x="343" 
d="M149 552v-552h-126v552h126zM23 596v104h126v-104h-126zM195 552h126v-541c0 -107 -25 -138 -124 -138h-35v94h5c22 0 28 4 28 35v550zM195 596v104h126v-104h-126z" />
    <glyph glyph-name="Jcircumflex" unicode="&#x134;" horiz-adv-x="367" 
d="M140 299v-132c0 -30 3 -40 27 -40h10c23 0 27 10 27 40v533h139v-550c0 -120 -28 -155 -138 -155h-58c-110 0 -139 35 -139 155v149h132zM318 840l69 -119h-78l-35 52l-35 -52h-78l69 119h88z" />
    <glyph glyph-name="jcircumflex" unicode="&#x135;" horiz-adv-x="172" 
d="M23 552h126v-541c0 -107 -25 -138 -124 -138h-35v94h5c22 0 28 4 28 35v550zM130 698l69 -119h-78l-35 52l-35 -52h-78l69 119h88z" />
    <glyph glyph-name="uni0136" unicode="&#x136;" horiz-adv-x="401" 
d="M26 0v700h140v-302c6 24 9 36 14 53l79 249h137l-111 -328l115 -372h-147l-71 247c-6 20 -11 40 -16 66v-313h-140zM151 -141v105h107v-105l-93 -77l-6 6l60 71h-68z" />
    <glyph glyph-name="uni0137" unicode="&#x137;" horiz-adv-x="351" 
d="M149 241v-241h-126v700h126v-383c7 27 14 46 21 68l54 167h120l-92 -261l97 -291h-131l-53 175c-7 23 -11 40 -16 66zM127 -141v105h107v-105l-93 -77l-6 6l60 71h-68z" />
    <glyph glyph-name="kgreenlandic" unicode="&#x138;" horiz-adv-x="351" 
d="M149 241v-241h-126v552h126v-235c7 27 14 46 21 68l54 167h120l-92 -261l97 -291h-131l-53 175c-7 23 -11 40 -16 66z" />
    <glyph glyph-name="Lacute" unicode="&#x139;" horiz-adv-x="271" 
d="M26 0v700h140v-568h103v-132h-243zM66 721l51 119h107l-81 -119h-77z" />
    <glyph glyph-name="lacute" unicode="&#x13a;" horiz-adv-x="172" 
d="M149 0h-126v700h126v-700zM32 721l51 119h107l-81 -119h-77z" />
    <glyph glyph-name="uni013B" unicode="&#x13b;" horiz-adv-x="271" 
d="M26 0v700h140v-568h103v-132h-243zM93 -141v105h107v-105l-93 -77l-6 6l60 71h-68z" />
    <glyph glyph-name="uni013C" unicode="&#x13c;" horiz-adv-x="172" 
d="M149 0h-126v700h126v-700zM32 -141v105h107v-105l-93 -77l-6 6l60 71h-68z" />
    <glyph glyph-name="Lcaron" unicode="&#x13d;" horiz-adv-x="339" 
d="M200 544v156h128v-156l-112 -93l-6 7l71 86h-81zM26 0v700h140v-568h103v-132h-243z" />
    <glyph glyph-name="lcaron" unicode="&#x13e;" horiz-adv-x="301" 
d="M180 560v140h114v-140l-100 -85l-5 7l64 78h-73zM149 0h-126v700h126v-700z" />
    <glyph glyph-name="Ldot" unicode="&#x13f;" horiz-adv-x="339" 
d="M200 286v155h128v-155h-128zM26 0v700h140v-568h103v-132h-243z" />
    <glyph glyph-name="ldot" unicode="&#x140;" horiz-adv-x="301" 
d="M180 280v140h114v-140h-114zM149 0h-126v700h126v-700z" />
    <glyph glyph-name="Lslash" unicode="&#x141;" horiz-adv-x="271" 
d="M26 0v177l-21 -21v133l21 21v390h140v-251l51 51v-133l-51 -51v-184h103v-132h-243z" />
    <glyph glyph-name="lslash" unicode="&#x142;" horiz-adv-x="187" 
d="M157 0h-126v198l-35 -35v133l35 35v369h126v-243l35 35v-133l-35 -35v-324z" />
    <glyph glyph-name="Nacute" unicode="&#x143;" horiz-adv-x="401" 
d="M222 0l-57 271c-10 49 -17 95 -23 144c1 -50 3 -95 3 -144v-271h-120v700h168l45 -237c9 -48 14 -95 20 -144c-1 50 -3 96 -3 144v237h121v-700h-154zM148 721l51 119h107l-81 -119h-77z" />
    <glyph glyph-name="nacute" unicode="&#x144;" horiz-adv-x="352" 
d="M331 0h-127v406c0 25 -3 35 -22 35h-8c-19 0 -25 -13 -25 -39v-402h-126v552h120v-75c7 50 29 80 86 80h23c61 0 79 -29 79 -103v-454zM122 579l51 119h107l-81 -119h-77z" />
    <glyph glyph-name="uni0145" unicode="&#x145;" horiz-adv-x="401" 
d="M222 0l-57 271c-10 49 -17 95 -23 144c1 -50 3 -95 3 -144v-271h-120v700h168l45 -237c9 -48 14 -95 20 -144c-1 50 -3 96 -3 144v237h121v-700h-154zM148 -141v105h107v-105l-93 -77l-6 6l60 71h-68z" />
    <glyph glyph-name="uni0146" unicode="&#x146;" horiz-adv-x="352" 
d="M331 0h-127v406c0 25 -3 35 -22 35h-8c-19 0 -25 -13 -25 -39v-402h-126v552h120v-75c7 50 29 80 86 80h23c61 0 79 -29 79 -103v-454zM123 -141v105h107v-105l-93 -77l-6 6l60 71h-68z" />
    <glyph glyph-name="Ncaron" unicode="&#x147;" horiz-adv-x="401" 
d="M222 0l-57 271c-10 49 -17 95 -23 144c1 -50 3 -95 3 -144v-271h-120v700h168l45 -237c9 -48 14 -95 20 -144c-1 50 -3 96 -3 144v237h121v-700h-154zM315 840l-69 -119h-88l-69 119h78l35 -52l35 52h78z" />
    <glyph glyph-name="ncaron" unicode="&#x148;" horiz-adv-x="352" 
d="M331 0h-127v406c0 25 -3 35 -22 35h-8c-19 0 -25 -13 -25 -39v-402h-126v552h120v-75c7 50 29 80 86 80h23c61 0 79 -29 79 -103v-454zM289 698l-69 -119h-88l-69 119h78l35 -52l35 52h78z" />
    <glyph glyph-name="napostrophe" unicode="&#x149;" horiz-adv-x="430" 
d="M23 595v105h107v-105l-94 -77l-5 6l59 71h-67zM409 0h-127v406c0 25 -3 35 -22 35h-8c-19 0 -25 -13 -25 -39v-402h-126v552h120v-75c7 50 29 80 86 80h23c61 0 79 -29 79 -103v-454z" />
    <glyph glyph-name="Omacron" unicode="&#x14c;" horiz-adv-x="386" 
d="M21 150v400c0 120 29 155 139 155h66c110 0 139 -35 139 -155v-400c0 -120 -29 -155 -139 -155h-66c-110 0 -139 35 -139 155zM225 167v366c0 30 -3 40 -27 40h-10c-24 0 -27 -10 -27 -40v-366c0 -30 3 -40 27 -40h10c24 0 27 10 27 40zM304 731h-222v75h222v-75z" />
    <glyph glyph-name="omacron" unicode="&#x14d;" horiz-adv-x="346" 
d="M327 419v-286c0 -107 -27 -138 -124 -138h-60c-98 0 -124 31 -124 138v286c0 108 26 138 124 138h60c97 0 124 -30 124 -138zM145 405v-258c0 -26 4 -36 24 -36h8c20 0 24 10 24 36v258c0 26 -4 36 -24 36h-8c-20 0 -24 -10 -24 -36zM284 589h-222v75h222v-75z" />
    <glyph glyph-name="Obreve" unicode="&#x14e;" horiz-adv-x="386" 
d="M21 150v400c0 120 29 155 139 155h66c110 0 139 -35 139 -155v-400c0 -120 -29 -155 -139 -155h-66c-110 0 -139 35 -139 155zM225 167v366c0 30 -3 40 -27 40h-10c-24 0 -27 -10 -27 -40v-366c0 -30 3 -40 27 -40h10c24 0 27 10 27 40zM193 790c36 0 44 12 44 47h65
c0 -67 -10 -117 -109 -117s-109 50 -109 117h65c0 -35 8 -47 44 -47z" />
    <glyph glyph-name="obreve" unicode="&#x14f;" horiz-adv-x="346" 
d="M327 419v-286c0 -107 -27 -138 -124 -138h-60c-98 0 -124 31 -124 138v286c0 108 26 138 124 138h60c97 0 124 -30 124 -138zM145 405v-258c0 -26 4 -36 24 -36h8c20 0 24 10 24 36v258c0 26 -4 36 -24 36h-8c-20 0 -24 -10 -24 -36zM173 648c36 0 44 12 44 47h65
c0 -67 -10 -117 -109 -117s-109 50 -109 117h65c0 -35 8 -47 44 -47z" />
    <glyph glyph-name="Ohungarumlaut" unicode="&#x150;" horiz-adv-x="386" 
d="M21 150v400c0 120 29 155 139 155h66c110 0 139 -35 139 -155v-400c0 -120 -29 -155 -139 -155h-66c-110 0 -139 35 -139 155zM225 167v366c0 30 -3 40 -27 40h-10c-24 0 -27 -10 -27 -40v-366c0 -30 3 -40 27 -40h10c24 0 27 10 27 40zM75 721l52 119h107l-81 -119h-78z
M202 721l52 119h107l-81 -119h-78z" />
    <glyph glyph-name="ohungarumlaut" unicode="&#x151;" horiz-adv-x="346" 
d="M327 419v-286c0 -107 -27 -138 -124 -138h-60c-98 0 -124 31 -124 138v286c0 108 26 138 124 138h60c97 0 124 -30 124 -138zM145 405v-258c0 -26 4 -36 24 -36h8c20 0 24 10 24 36v258c0 26 -4 36 -24 36h-8c-20 0 -24 -10 -24 -36zM55 579l52 119h107l-81 -119h-78z
M182 579l52 119h107l-81 -119h-78z" />
    <glyph glyph-name="OE" unicode="&#x152;" horiz-adv-x="496" 
d="M360 568v-138h97v-132h-97v-166h122v-132h-321c-111 0 -140 35 -140 155v390c0 120 29 155 140 155h321v-132h-122zM189 132h31v436h-31c-24 0 -28 -10 -28 -40v-356c0 -30 4 -40 28 -40z" />
    <glyph glyph-name="oe" unicode="&#x153;" horiz-adv-x="520" 
d="M382 147v43h119v-57c0 -107 -26 -138 -124 -138h-9c-62 0 -91 12 -105 49c-12 -37 -41 -49 -102 -49h-18c-98 0 -124 31 -124 138v286c0 108 26 138 124 138h18c61 0 90 -12 102 -49c14 37 42 49 105 49h9c98 0 124 -30 124 -138v-186h-174v-86c0 -26 3 -36 23 -36h9
c20 0 23 10 23 36zM145 405v-258c0 -26 4 -36 24 -36h8c20 0 24 10 24 36v258c0 26 -4 36 -24 36h-8c-20 0 -24 -10 -24 -36zM327 405v-67h55v67c0 26 -3 36 -23 36h-9c-20 0 -23 -10 -23 -36z" />
    <glyph glyph-name="Racute" unicode="&#x154;" horiz-adv-x="387" 
d="M366 204v-81c0 -45 4 -88 18 -123h-144c-12 23 -14 65 -14 109v123c0 33 -7 52 -37 52h-26v-284h-140v700h204c111 0 139 -35 139 -155v-53c0 -85 -14 -126 -62 -143c48 -17 62 -60 62 -145zM226 456v72c0 30 -3 40 -26 40h-37v-152h37c23 0 26 10 26 40zM137 721l51 119
h107l-81 -119h-77z" />
    <glyph glyph-name="racute" unicode="&#x155;" horiz-adv-x="225" 
d="M149 0h-126v552h120v-82c7 54 29 87 73 87h7v-136h-8c-50 0 -66 -25 -66 -90v-331zM60 579l51 119h107l-81 -119h-77z" />
    <glyph glyph-name="uni0156" unicode="&#x156;" horiz-adv-x="387" 
d="M366 204v-81c0 -45 4 -88 18 -123h-144c-12 23 -14 65 -14 109v123c0 33 -7 52 -37 52h-26v-284h-140v700h204c111 0 139 -35 139 -155v-53c0 -85 -14 -126 -62 -143c48 -17 62 -60 62 -145zM226 456v72c0 30 -3 40 -26 40h-37v-152h37c23 0 26 10 26 40zM141 -141v105
h107v-105l-93 -77l-6 6l60 71h-68z" />
    <glyph glyph-name="uni0157" unicode="&#x157;" horiz-adv-x="225" 
d="M149 0h-126v552h120v-82c7 54 29 87 73 87h7v-136h-8c-50 0 -66 -25 -66 -90v-331zM32 -141v105h107v-105l-93 -77l-6 6l60 71h-68z" />
    <glyph glyph-name="Rcaron" unicode="&#x158;" horiz-adv-x="387" 
d="M366 204v-81c0 -45 4 -88 18 -123h-144c-12 23 -14 65 -14 109v123c0 33 -7 52 -37 52h-26v-284h-140v700h204c111 0 139 -35 139 -155v-53c0 -85 -14 -126 -62 -143c48 -17 62 -60 62 -145zM226 456v72c0 30 -3 40 -26 40h-37v-152h37c23 0 26 10 26 40zM303 840
l-69 -119h-88l-69 119h78l35 -52l35 52h78z" />
    <glyph glyph-name="rcaron" unicode="&#x159;" horiz-adv-x="225" 
d="M149 0h-126v552h120v-82c7 54 29 87 73 87h7v-136h-8c-50 0 -66 -25 -66 -90v-331zM227 698l-69 -119h-88l-69 119h78l35 -52l35 52h78z" />
    <glyph glyph-name="Sacute" unicode="&#x15a;" horiz-adv-x="366" 
d="M209 167v25c0 56 -21 74 -87 128c-71 60 -105 99 -105 202v28c0 120 29 155 139 155h55c110 0 138 -35 138 -155v-85h-131v68c0 30 -4 40 -27 40h-8c-24 0 -27 -10 -27 -37v-13c0 -55 22 -74 87 -128c72 -60 106 -99 106 -202v-43c0 -120 -29 -155 -138 -155h-56
c-109 0 -138 35 -138 155v105h131v-88c0 -30 3 -40 26 -40h9c23 0 26 10 26 40zM130 721l51 119h107l-81 -119h-77z" />
    <glyph glyph-name="sacute" unicode="&#x15b;" horiz-adv-x="333" 
d="M191 147v18c0 34 -20 45 -80 77c-71 38 -94 75 -94 149v28c0 108 25 138 124 138h51c98 0 125 -30 125 -138v-57h-119v43c0 26 -3 36 -23 36h-9c-20 0 -23 -10 -23 -36v-8c0 -34 19 -45 79 -77c71 -38 95 -75 95 -149v-38c0 -107 -27 -138 -125 -138h-51
c-99 0 -124 31 -124 138v67h118v-53c0 -26 3 -36 24 -36h8c20 0 24 10 24 36zM113 579l51 119h107l-81 -119h-77z" />
    <glyph glyph-name="Scircumflex" unicode="&#x15c;" horiz-adv-x="366" 
d="M209 167v25c0 56 -21 74 -87 128c-71 60 -105 99 -105 202v28c0 120 29 155 139 155h55c110 0 138 -35 138 -155v-85h-131v68c0 30 -4 40 -27 40h-8c-24 0 -27 -10 -27 -37v-13c0 -55 22 -74 87 -128c72 -60 106 -99 106 -202v-43c0 -120 -29 -155 -138 -155h-56
c-109 0 -138 35 -138 155v105h131v-88c0 -30 3 -40 26 -40h9c23 0 26 10 26 40zM227 840l69 -119h-78l-35 52l-35 -52h-78l69 119h88z" />
    <glyph glyph-name="scircumflex" unicode="&#x15d;" horiz-adv-x="333" 
d="M191 147v18c0 34 -20 45 -80 77c-71 38 -94 75 -94 149v28c0 108 25 138 124 138h51c98 0 125 -30 125 -138v-57h-119v43c0 26 -3 36 -23 36h-9c-20 0 -23 -10 -23 -36v-8c0 -34 19 -45 79 -77c71 -38 95 -75 95 -149v-38c0 -107 -27 -138 -125 -138h-51
c-99 0 -124 31 -124 138v67h118v-53c0 -26 3 -36 24 -36h8c20 0 24 10 24 36zM211 698l69 -119h-78l-35 52l-35 -52h-78l69 119h88z" />
    <glyph glyph-name="Scedilla" unicode="&#x15e;" horiz-adv-x="366" 
d="M199 -80c0 17 -10 27 -49 27v48c-105 1 -133 37 -133 155v105h131v-88c0 -30 3 -40 26 -40h9c23 0 26 10 26 40v25c0 56 -21 74 -87 128c-71 60 -105 99 -105 202v28c0 120 29 155 139 155h55c110 0 138 -35 138 -155v-85h-131v68c0 30 -4 40 -27 40h-8
c-24 0 -27 -10 -27 -37v-13c0 -55 22 -74 87 -128c72 -60 106 -99 106 -202v-43c0 -120 -29 -155 -138 -155h-18v-28c59 0 85 -9 85 -46c0 -29 -6 -53 -99 -53c-84 0 -91 16 -91 56h66c0 -17 1 -26 22 -26c20 0 23 7 23 22z" />
    <glyph glyph-name="scedilla" unicode="&#x15f;" horiz-adv-x="333" 
d="M182 -80c0 17 -10 27 -49 27v48c-93 2 -116 34 -116 138v67h118v-53c0 -26 3 -36 24 -36h8c20 0 24 10 24 36v18c0 34 -20 45 -80 77c-71 38 -94 75 -94 149v28c0 108 25 138 124 138h51c98 0 125 -30 125 -138v-57h-119v43c0 26 -3 36 -23 36h-9c-20 0 -23 -10 -23 -36
v-8c0 -34 19 -45 79 -77c71 -38 95 -75 95 -149v-38c0 -107 -27 -138 -125 -138h-16v-28c59 0 85 -9 85 -46c0 -29 -6 -53 -99 -53c-84 0 -91 16 -91 56h66c0 -17 1 -26 22 -26c20 0 23 7 23 22z" />
    <glyph glyph-name="Scaron" unicode="&#x160;" horiz-adv-x="366" 
d="M209 167v25c0 56 -21 74 -87 128c-71 60 -105 99 -105 202v28c0 120 29 155 139 155h55c110 0 138 -35 138 -155v-85h-131v68c0 30 -4 40 -27 40h-8c-24 0 -27 -10 -27 -37v-13c0 -55 22 -74 87 -128c72 -60 106 -99 106 -202v-43c0 -120 -29 -155 -138 -155h-56
c-109 0 -138 35 -138 155v105h131v-88c0 -30 3 -40 26 -40h9c23 0 26 10 26 40zM296 840l-69 -119h-88l-69 119h78l35 -52l35 52h78z" />
    <glyph glyph-name="scaron" unicode="&#x161;" horiz-adv-x="333" 
d="M191 147v18c0 34 -20 45 -80 77c-71 38 -94 75 -94 149v28c0 108 25 138 124 138h51c98 0 125 -30 125 -138v-57h-119v43c0 26 -3 36 -23 36h-9c-20 0 -23 -10 -23 -36v-8c0 -34 19 -45 79 -77c71 -38 95 -75 95 -149v-38c0 -107 -27 -138 -125 -138h-51
c-99 0 -124 31 -124 138v67h118v-53c0 -26 3 -36 24 -36h8c20 0 24 10 24 36zM280 698l-69 -119h-88l-69 119h78l35 -52l35 52h78z" />
    <glyph glyph-name="uni0162" unicode="&#x162;" horiz-adv-x="291" 
d="M163 -80c0 17 -10 27 -49 27v53h-38v569h-74v131h288v-131h-74v-569h-59v-33c59 0 85 -9 85 -46c0 -29 -6 -53 -99 -53c-84 0 -91 16 -91 56h66c0 -17 1 -26 22 -26c20 0 23 7 23 22z" />
    <glyph glyph-name="uni0163" unicode="&#x163;" horiz-adv-x="207" 
d="M120 -80c0 17 -10 27 -49 27v53h-23c-12 23 -14 66 -14 112v335h-30v105h30v120h126v-120h45v-105h-45v-321c0 -47 5 -89 19 -126h-65v-33c59 0 85 -9 85 -46c0 -29 -6 -53 -99 -53c-84 0 -91 16 -91 56h66c0 -17 1 -26 22 -26c20 0 23 7 23 22z" />
    <glyph glyph-name="Tcaron" unicode="&#x164;" horiz-adv-x="291" 
d="M216 0h-140v569h-74v131h288v-131h-74v-569zM259 840l-69 -119h-88l-69 119h78l35 -52l35 52h78z" />
    <glyph glyph-name="tcaron" unicode="&#x165;" horiz-adv-x="333" 
d="M212 560v140h114v-140l-100 -85l-5 7l64 78h-73zM4 447v105h30v120h126v-120h45v-105h-45v-321c0 -47 5 -89 19 -126h-131c-12 23 -14 66 -14 112v335h-30z" />
    <glyph glyph-name="Tbar" unicode="&#x166;" horiz-adv-x="291" 
d="M216 0h-140v415h-41v104h41v50h-74v131h288v-131h-74v-50h41v-104h-41v-415z" />
    <glyph glyph-name="tbar" unicode="&#x167;" horiz-adv-x="207" 
d="M4 447v105h30v120h126v-120h45v-105h-45v-50h45v-85h-45v-186c0 -47 5 -89 19 -126h-131c-12 23 -14 66 -14 112v200h-30v85h30v50h-30z" />
    <glyph glyph-name="Utilde" unicode="&#x168;" horiz-adv-x="382" 
d="M164 700v-533c0 -30 3 -40 26 -40h11c23 0 26 10 26 40v533h132v-550c0 -120 -28 -155 -138 -155h-58c-110 0 -139 35 -139 155v550h140zM249 829h56c0 -74 -22 -99 -72 -99c-42 0 -57 24 -81 24c-15 0 -19 -7 -19 -24h-57c0 75 22 99 73 99c43 0 58 -26 82 -26
c14 0 18 11 18 26z" />
    <glyph glyph-name="utilde" unicode="&#x169;" horiz-adv-x="352" 
d="M329 93c0 -32 1 -60 9 -93h-120c-6 11 -9 32 -11 64c-8 -44 -31 -69 -84 -69h-23c-61 0 -78 29 -78 103v454h126v-406c0 -25 3 -35 22 -35h8c19 0 25 13 25 39v402h126v-459zM234 687h56c0 -74 -22 -99 -72 -99c-42 0 -57 24 -81 24c-15 0 -19 -7 -19 -24h-57
c0 75 22 99 73 99c43 0 58 -26 82 -26c14 0 18 11 18 26z" />
    <glyph glyph-name="Umacron" unicode="&#x16a;" horiz-adv-x="382" 
d="M164 700v-533c0 -30 3 -40 26 -40h11c23 0 26 10 26 40v533h132v-550c0 -120 -28 -155 -138 -155h-58c-110 0 -139 35 -139 155v550h140zM302 731h-222v75h222v-75z" />
    <glyph glyph-name="umacron" unicode="&#x16b;" horiz-adv-x="352" 
d="M329 93c0 -32 1 -60 9 -93h-120c-6 11 -9 32 -11 64c-8 -44 -31 -69 -84 -69h-23c-61 0 -78 29 -78 103v454h126v-406c0 -25 3 -35 22 -35h8c19 0 25 13 25 39v402h126v-459zM287 589h-222v75h222v-75z" />
    <glyph glyph-name="Ubreve" unicode="&#x16c;" horiz-adv-x="382" 
d="M164 700v-533c0 -30 3 -40 26 -40h11c23 0 26 10 26 40v533h132v-550c0 -120 -28 -155 -138 -155h-58c-110 0 -139 35 -139 155v550h140zM191 790c36 0 44 12 44 47h65c0 -67 -10 -117 -109 -117s-109 50 -109 117h65c0 -35 8 -47 44 -47z" />
    <glyph glyph-name="ubreve" unicode="&#x16d;" horiz-adv-x="352" 
d="M329 93c0 -32 1 -60 9 -93h-120c-6 11 -9 32 -11 64c-8 -44 -31 -69 -84 -69h-23c-61 0 -78 29 -78 103v454h126v-406c0 -25 3 -35 22 -35h8c19 0 25 13 25 39v402h126v-459zM176 648c36 0 44 12 44 47h65c0 -67 -10 -117 -109 -117s-109 50 -109 117h65
c0 -35 8 -47 44 -47z" />
    <glyph glyph-name="Uring" unicode="&#x16e;" horiz-adv-x="382" 
d="M164 700v-533c0 -30 3 -40 26 -40h11c23 0 26 10 26 40v533h132v-550c0 -120 -28 -155 -138 -155h-58c-110 0 -139 35 -139 155v550h140zM215 792c0 14 -10 24 -24 24s-24 -10 -24 -24c0 -15 10 -25 24 -25s24 10 24 25zM117 792c0 43 34 71 74 71c41 0 74 -28 74 -71
c0 -44 -33 -72 -74 -72c-40 0 -74 28 -74 72z" />
    <glyph glyph-name="uring" unicode="&#x16f;" horiz-adv-x="352" 
d="M329 93c0 -32 1 -60 9 -93h-120c-6 11 -9 32 -11 64c-8 -44 -31 -69 -84 -69h-23c-61 0 -78 29 -78 103v454h126v-406c0 -25 3 -35 22 -35h8c19 0 25 13 25 39v402h126v-459zM200 650c0 14 -10 24 -24 24s-24 -10 -24 -24c0 -15 10 -25 24 -25s24 10 24 25zM102 650
c0 43 34 71 74 71c41 0 74 -28 74 -71c0 -44 -33 -72 -74 -72c-40 0 -74 28 -74 72z" />
    <glyph glyph-name="Uhungarumlaut" unicode="&#x170;" horiz-adv-x="382" 
d="M164 700v-533c0 -30 3 -40 26 -40h11c23 0 26 10 26 40v533h132v-550c0 -120 -28 -155 -138 -155h-58c-110 0 -139 35 -139 155v550h140zM73 721l52 119h107l-81 -119h-78zM200 721l52 119h107l-81 -119h-78z" />
    <glyph glyph-name="uhungarumlaut" unicode="&#x171;" horiz-adv-x="352" 
d="M329 93c0 -32 1 -60 9 -93h-120c-6 11 -9 32 -11 64c-8 -44 -31 -69 -84 -69h-23c-61 0 -78 29 -78 103v454h126v-406c0 -25 3 -35 22 -35h8c19 0 25 13 25 39v402h126v-459zM58 579l52 119h107l-81 -119h-78zM185 579l52 119h107l-81 -119h-78z" />
    <glyph glyph-name="Uogonek" unicode="&#x172;" horiz-adv-x="382" 
d="M359 -72v-52c-19 -4 -44 -8 -66 -8c-74 0 -95 15 -95 51s21 59 59 78c-11 -1 -23 -2 -36 -2h-58c-110 0 -139 35 -139 155v550h140v-533c0 -30 3 -40 26 -40h11c23 0 26 10 26 40v533h132v-550c0 -75 -11 -117 -46 -138c-30 -28 -32 -46 -32 -66c0 -18 16 -23 42 -23
c11 0 23 1 36 5z" />
    <glyph glyph-name="uogonek" unicode="&#x173;" horiz-adv-x="352" 
d="M338 -72v-52c-19 -4 -44 -8 -66 -8c-74 0 -95 15 -95 51c0 44 40 62 75 81h-34c-6 11 -9 32 -11 64c-8 -44 -31 -69 -84 -69h-23c-61 0 -78 29 -78 103v454h126v-406c0 -25 3 -35 22 -35h8c19 0 25 13 25 39v402h126v-459c0 -32 1 -60 9 -93h-45c-22 -19 -33 -32 -33 -52
c0 -18 16 -25 42 -25c11 0 23 1 36 5z" />
    <glyph glyph-name="Wcircumflex" unicode="&#x174;" horiz-adv-x="573" 
d="M278 208l-20 -208h-170l-83 700h141l26 -269c7 -72 13 -141 15 -206c3 65 8 134 15 206l26 269h133l25 -269c7 -72 13 -141 15 -206c2 65 9 134 16 206l27 269h125l-82 -700h-163l-20 208c-5 56 -11 121 -13 179c-2 -58 -8 -123 -13 -179zM331 840l69 -119h-78l-35 52
l-35 -52h-78l69 119h88z" />
    <glyph glyph-name="wcircumflex" unicode="&#x175;" horiz-adv-x="521" 
d="M250 104l-10 -104h-168l-70 552h129l14 -118c12 -103 16 -206 20 -282c5 76 13 179 25 281l14 119h128l15 -119c13 -102 20 -205 24 -281c4 76 5 179 18 282l15 118h115l-70 -552h-158l-10 104c-6 58 -14 123 -16 180c-3 -57 -9 -122 -15 -180zM304 698l69 -119h-78
l-35 52l-35 -52h-78l69 119h88z" />
    <glyph glyph-name="Ycircumflex" unicode="&#x176;" horiz-adv-x="364" 
d="M252 0h-140v209l-110 491h141l21 -110c9 -48 19 -125 26 -209c7 84 17 161 26 209l21 110h126l-111 -491v-209zM229 840l69 -119h-78l-35 52l-35 -52h-78l69 119h88z" />
    <glyph glyph-name="ycircumflex" unicode="&#x177;" horiz-adv-x="330" 
d="M240 -30c-8 -60 -44 -97 -116 -97h-109v94h49c16 0 20 7 20 22v20l-82 543h129l18 -138c10 -77 19 -198 23 -270c4 72 12 193 23 270l19 138h114zM213 698l69 -119h-78l-35 52l-35 -52h-78l69 119h88z" />
    <glyph glyph-name="Ydieresis" unicode="&#x178;" horiz-adv-x="364" 
d="M252 0h-140v209l-110 491h141l21 -110c9 -48 19 -125 26 -209c7 84 17 161 26 209l21 110h126l-111 -491v-209zM308 728h-107v105h107v-105zM166 728h-107v105h107v-105z" />
    <glyph glyph-name="Zacute" unicode="&#x179;" horiz-adv-x="312" 
d="M19 568v132h281v-121l-142 -447h142v-132h-289v121l142 447h-134zM106 721l51 119h107l-81 -119h-77z" />
    <glyph glyph-name="zacute" unicode="&#x17a;" horiz-adv-x="293" 
d="M24 447v105h259v-94l-136 -353h136v-105h-272v93l136 354h-123zM96 579l51 119h107l-81 -119h-77z" />
    <glyph glyph-name="Zdotaccent" unicode="&#x17b;" horiz-adv-x="312" 
d="M19 568v132h281v-121l-142 -447h142v-132h-289v121l142 447h-134zM213 728h-108v105h108v-105z" />
    <glyph glyph-name="zdotaccent" unicode="&#x17c;" horiz-adv-x="293" 
d="M24 447v105h259v-94l-136 -353h136v-105h-272v93l136 354h-123zM204 586h-108v105h108v-105z" />
    <glyph glyph-name="Zcaron" unicode="&#x17d;" horiz-adv-x="312" 
d="M19 568v132h281v-121l-142 -447h142v-132h-289v121l142 447h-134zM273 840l-69 -119h-88l-69 119h78l35 -52l35 52h78z" />
    <glyph glyph-name="zcaron" unicode="&#x17e;" horiz-adv-x="293" 
d="M24 447v105h259v-94l-136 -353h136v-105h-272v93l136 354h-123zM263 698l-69 -119h-88l-69 119h78l35 -52l35 52h78z" />
    <glyph glyph-name="florin" unicode="&#x192;" 
d="M82 432l9 105h30l2 25c10 108 38 138 136 138h55l-8 -99h-27c-21 0 -29 -9 -32 -39l-2 -25h55l-8 -105h-55l-47 -559h-126l48 559h-30z" />
    <glyph glyph-name="AEacute" unicode="&#x1fc;" horiz-adv-x="501" 
d="M3 0l161 700h323v-132h-122v-138h96v-132h-96v-166h122v-132h-262v91h-77l-19 -91h-126zM225 522c-14 -94 -32 -216 -51 -307h51v307zM197 721l51 119h107l-81 -119h-77z" />
    <glyph glyph-name="aeacute" unicode="&#x1fd;" horiz-adv-x="517" 
d="M106 322c80 27 92 32 92 83c0 26 -4 36 -24 36h-8c-20 0 -23 -10 -23 -36v-43h-119v57c0 108 26 138 124 138h11c59 0 88 -12 101 -46c14 34 42 46 103 46h11c98 0 124 -30 124 -138v-188h-174v-84c0 -26 3 -36 23 -36h9c20 0 23 10 23 36v41h119v-55
c0 -107 -26 -138 -124 -138h-52c-76 0 -108 18 -119 74c-8 -47 -31 -74 -86 -74h-22c-61 0 -79 29 -79 103v89c0 68 15 109 90 135zM379 341v64c0 26 -3 36 -23 36h-9c-20 0 -23 -10 -23 -36v-64h55zM198 150v99l-15 -5c-37 -12 -41 -25 -41 -61v-37c0 -25 3 -35 23 -35h7
c20 0 26 13 26 39zM205 579l51 119h107l-81 -119h-77z" />
    <glyph glyph-name="Oslashacute" unicode="&#x1fe;" horiz-adv-x="386" 
d="M139 721l51 119h107l-81 -119h-77zM21 150v400c0 120 29 155 139 155h66c6 0 12 -1 17 -1l8 26h113l-20 -67c15 -24 21 -60 21 -113v-400c0 -120 -29 -155 -139 -155h-66c-6 0 -12 1 -18 1l-7 -26h-114l20 67c-15 24 -20 61 -20 113zM225 167v165l-49 -204
c3 -1 7 -1 12 -1h10c24 0 27 10 27 40zM161 533v-164l48 203c-3 1 -7 1 -11 1h-10c-24 0 -27 -10 -27 -40z" />
    <glyph glyph-name="oslashacute" unicode="&#x1ff;" horiz-adv-x="346" 
d="M119 579l51 119h107l-81 -119h-77zM327 419v-286c0 -107 -27 -138 -124 -138h-74l-8 -25h-102l21 59c-16 21 -21 54 -21 104v286c0 108 26 138 124 138h72l10 30h102l-22 -63c16 -22 22 -55 22 -105zM177 111c20 0 24 10 24 36v123l-40 -159h16zM145 405v-119l38 154
c-2 1 -4 1 -6 1h-8c-20 0 -24 -10 -24 -36z" />
    <glyph glyph-name="uni0218" unicode="&#x218;" horiz-adv-x="366" 
d="M209 167v25c0 56 -21 74 -87 128c-71 60 -105 99 -105 202v28c0 120 29 155 139 155h55c110 0 138 -35 138 -155v-85h-131v68c0 30 -4 40 -27 40h-8c-24 0 -27 -10 -27 -37v-13c0 -55 22 -74 87 -128c72 -60 106 -99 106 -202v-43c0 -120 -29 -155 -138 -155h-56
c-109 0 -138 35 -138 155v105h131v-88c0 -30 3 -40 26 -40h9c23 0 26 10 26 40zM129 -141v105h107v-105l-93 -77l-6 6l60 71h-68z" />
    <glyph glyph-name="uni0219" unicode="&#x219;" horiz-adv-x="333" 
d="M191 147v18c0 34 -20 45 -80 77c-71 38 -94 75 -94 149v28c0 108 25 138 124 138h51c98 0 125 -30 125 -138v-57h-119v43c0 26 -3 36 -23 36h-9c-20 0 -23 -10 -23 -36v-8c0 -34 19 -45 79 -77c71 -38 95 -75 95 -149v-38c0 -107 -27 -138 -125 -138h-51
c-99 0 -124 31 -124 138v67h118v-53c0 -26 3 -36 24 -36h8c20 0 24 10 24 36zM113 -141v105h107v-105l-93 -77l-6 6l60 71h-68z" />
    <glyph glyph-name="uni021A" unicode="&#x21a;" horiz-adv-x="291" 
d="M216 0h-140v569h-74v131h288v-131h-74v-569zM92 -141v105h107v-105l-93 -77l-6 6l60 71h-68z" />
    <glyph glyph-name="uni021B" unicode="&#x21b;" horiz-adv-x="207" 
d="M4 447v105h30v120h126v-120h45v-105h-45v-321c0 -47 5 -89 19 -126h-131c-12 23 -14 66 -14 112v335h-30zM49 -141v105h107v-105l-93 -77l-6 6l60 71h-68z" />
    <glyph glyph-name="uni0237" unicode="&#x237;" horiz-adv-x="172" 
d="M23 552h126v-541c0 -107 -25 -138 -124 -138h-35v94h5c22 0 28 4 28 35v550z" />
    <glyph glyph-name="circumflex" unicode="&#x2c6;" horiz-adv-x="179" 
d="M134 698l69 -119h-78l-35 52l-35 -52h-78l69 119h88z" />
    <glyph glyph-name="caron" unicode="&#x2c7;" horiz-adv-x="179" 
d="M203 698l-69 -119h-88l-69 119h78l35 -52l35 52h78z" />
    <glyph glyph-name="breve" unicode="&#x2d8;" horiz-adv-x="179" 
d="M90 648c36 0 44 12 44 47h65c0 -67 -10 -117 -109 -117s-109 50 -109 117h65c0 -35 8 -47 44 -47z" />
    <glyph glyph-name="dotaccent" unicode="&#x2d9;" horiz-adv-x="179" 
d="M143 586h-108v105h108v-105z" />
    <glyph glyph-name="ring" unicode="&#x2da;" horiz-adv-x="179" 
d="M113 650c0 14 -10 24 -24 24s-24 -10 -24 -24c0 -15 10 -25 24 -25s24 10 24 25zM15 650c0 43 34 71 74 71c41 0 74 -28 74 -71c0 -44 -33 -72 -74 -72c-40 0 -74 28 -74 72z" />
    <glyph glyph-name="ogonek" unicode="&#x2db;" horiz-adv-x="179" 
d="M170 -72v-52c-19 -4 -44 -8 -66 -8c-74 0 -95 15 -95 51c0 45 51 60 110 83h40c-51 -23 -67 -36 -67 -56c0 -18 16 -23 42 -23c11 0 23 1 36 5z" />
    <glyph glyph-name="tilde" unicode="&#x2dc;" horiz-adv-x="179" 
d="M148 687h56c0 -74 -22 -99 -72 -99c-42 0 -57 24 -81 24c-15 0 -19 -7 -19 -24h-57c0 75 22 99 73 99c43 0 58 -26 82 -26c14 0 18 11 18 26z" />
    <glyph glyph-name="hungarumlaut" unicode="&#x2dd;" horiz-adv-x="179" 
d="M-46 579l52 119h107l-81 -119h-78zM81 579l52 119h107l-81 -119h-78z" />
    <glyph glyph-name="commaaccent" horiz-adv-x="179" 
d="M36 -141v105h107v-105l-93 -77l-6 6l60 71h-68z" />
    <glyph glyph-name="pi" unicode="&#x3c0;" horiz-adv-x="353" 
d="M149 447v-447h-126v552h308v-552h-127v447h-55z" />
    <glyph glyph-name="uni1E02" unicode="&#x1e02;" horiz-adv-x="384" 
d="M23 0v700h204c111 0 139 -35 139 -155v-35c0 -85 -14 -126 -62 -143c48 -16 62 -57 62 -142v-70c0 -120 -28 -155 -139 -155h-204zM200 302h-37v-170h37c23 0 26 10 26 40v90c0 30 -3 40 -26 40zM226 473v55c0 30 -3 40 -26 40h-37v-134h37c23 0 26 10 26 39zM244 728
h-108v105h108v-105z" />
    <glyph glyph-name="uni1E03" unicode="&#x1e03;" horiz-adv-x="350" 
d="M204 406c0 25 -3 35 -22 35h-8c-19 0 -25 -13 -25 -39v-252c0 -26 6 -39 25 -39h8c19 0 22 10 22 35v260zM149 700v-196c11 34 34 53 80 53h23c61 0 79 -29 79 -103v-356c0 -74 -18 -103 -79 -103h-23c-51 0 -74 23 -83 63l-11 -58h-112v700h126zM140 728h-108v105h108
v-105z" />
    <glyph glyph-name="uni1E0A" unicode="&#x1e0a;" horiz-adv-x="391" 
d="M26 0v700h205c110 0 138 -35 138 -155v-390c0 -120 -28 -155 -138 -155h-205zM166 132h37c23 0 26 10 26 40v356c0 30 -3 40 -26 40h-37v-436zM244 728h-108v105h108v-105z" />
    <glyph glyph-name="uni1E0B" unicode="&#x1e0b;" horiz-adv-x="350" 
d="M202 150v252c0 26 -7 39 -26 39h-7c-20 0 -23 -10 -23 -35v-260c0 -25 3 -35 23 -35h7c19 0 26 13 26 39zM328 93c0 -32 0 -60 9 -93h-120c-6 10 -10 31 -12 62c-9 -43 -32 -67 -84 -67h-22c-61 0 -79 29 -79 103v356c0 74 18 103 79 103h22c46 0 70 -20 81 -54v197h126
v-607zM318 728h-108v105h108v-105z" />
    <glyph glyph-name="uni1E1E" unicode="&#x1e1e;" horiz-adv-x="285" 
d="M166 568v-148h90v-132h-90v-288h-140v700h256v-132h-116zM212 728h-108v105h108v-105z" />
    <glyph glyph-name="uni1E1F" unicode="&#x1e1f;" horiz-adv-x="208" 
d="M4 447v105h30v12c0 105 27 136 125 136h47v-98h-20c-20 0 -28 -6 -28 -35v-15h48v-105h-46v-447h-126v447h-30zM177 728h-108v105h108v-105z" />
    <glyph glyph-name="uni1E40" unicode="&#x1e40;" horiz-adv-x="534" 
d="M354 310l-46 -310h-99l-45 310c-6 41 -13 103 -19 154c1 -49 2 -107 2 -154v-310h-122v700h195l34 -271c5 -37 7 -78 10 -119c3 41 5 82 10 119l34 271h201v-700h-137v310c0 47 1 107 2 157c-7 -52 -14 -117 -20 -157zM321 728h-108v105h108v-105z" />
    <glyph glyph-name="uni1E41" unicode="&#x1e41;" horiz-adv-x="530" 
d="M149 0h-126v552h120v-75c7 50 29 80 86 80h21c47 0 68 -17 76 -60c10 38 33 60 82 60h21c61 0 79 -29 79 -103v-454h-126v406c0 25 -3 35 -23 35h-5c-19 0 -25 -13 -25 -39v-402h-127v406c0 25 -3 35 -22 35h-6c-19 0 -25 -13 -25 -39v-402zM319 586h-108v105h108v-105z
" />
    <glyph glyph-name="uni1E56" unicode="&#x1e56;" horiz-adv-x="379" 
d="M26 0v700h203c110 0 138 -35 138 -155v-150c0 -120 -28 -156 -138 -156h-63v-239h-140zM166 371h35c23 0 26 10 26 40v117c0 30 -3 40 -26 40h-35v-197zM243 728h-108v105h108v-105z" />
    <glyph glyph-name="uni1E57" unicode="&#x1e57;" horiz-adv-x="350" 
d="M204 406c0 25 -3 35 -22 35h-8c-19 0 -25 -13 -25 -39v-252c0 -26 6 -39 25 -39h8c19 0 22 10 22 35v260zM149 -127h-126v679h120v-75c7 50 29 80 86 80h23c61 0 79 -29 79 -103v-356c0 -74 -18 -103 -79 -103h-23c-46 0 -69 19 -80 52v-174zM230 586h-108v105h108v-105z
" />
    <glyph glyph-name="uni1E60" unicode="&#x1e60;" horiz-adv-x="366" 
d="M209 167v25c0 56 -21 74 -87 128c-71 60 -105 99 -105 202v28c0 120 29 155 139 155h55c110 0 138 -35 138 -155v-85h-131v68c0 30 -4 40 -27 40h-8c-24 0 -27 -10 -27 -37v-13c0 -55 22 -74 87 -128c72 -60 106 -99 106 -202v-43c0 -120 -29 -155 -138 -155h-56
c-109 0 -138 35 -138 155v105h131v-88c0 -30 3 -40 26 -40h9c23 0 26 10 26 40zM237 728h-108v105h108v-105z" />
    <glyph glyph-name="uni1E61" unicode="&#x1e61;" horiz-adv-x="333" 
d="M191 147v18c0 34 -20 45 -80 77c-71 38 -94 75 -94 149v28c0 108 25 138 124 138h51c98 0 125 -30 125 -138v-57h-119v43c0 26 -3 36 -23 36h-9c-20 0 -23 -10 -23 -36v-8c0 -34 19 -45 79 -77c71 -38 95 -75 95 -149v-38c0 -107 -27 -138 -125 -138h-51
c-99 0 -124 31 -124 138v67h118v-53c0 -26 3 -36 24 -36h8c20 0 24 10 24 36zM221 586h-108v105h108v-105z" />
    <glyph glyph-name="uni1E6A" unicode="&#x1e6a;" horiz-adv-x="291" 
d="M216 0h-140v569h-74v131h288v-131h-74v-569zM200 728h-108v105h108v-105z" />
    <glyph glyph-name="uni1E6B" unicode="&#x1e6b;" horiz-adv-x="207" 
d="M4 447v105h30v120h126v-120h45v-105h-45v-321c0 -47 5 -89 19 -126h-131c-12 23 -14 66 -14 112v335h-30zM151 706h-108v105h108v-105z" />
    <glyph glyph-name="Wgrave" unicode="&#x1e80;" horiz-adv-x="573" 
d="M278 208l-20 -208h-170l-83 700h141l26 -269c7 -72 13 -141 15 -206c3 65 8 134 15 206l26 269h133l25 -269c7 -72 13 -141 15 -206c2 65 9 134 16 206l27 269h125l-82 -700h-163l-20 208c-5 56 -11 121 -13 179c-2 -58 -8 -123 -13 -179zM289 840l51 -119h-77l-82 119
h108z" />
    <glyph glyph-name="wgrave" unicode="&#x1e81;" horiz-adv-x="521" 
d="M250 104l-10 -104h-168l-70 552h129l14 -118c12 -103 16 -206 20 -282c5 76 13 179 25 281l14 119h128l15 -119c13 -102 20 -205 24 -281c4 76 5 179 18 282l15 118h115l-70 -552h-158l-10 104c-6 58 -14 123 -16 180c-3 -57 -9 -122 -15 -180zM263 698l51 -119h-77
l-82 119h108z" />
    <glyph glyph-name="Wacute" unicode="&#x1e82;" horiz-adv-x="573" 
d="M278 208l-20 -208h-170l-83 700h141l26 -269c7 -72 13 -141 15 -206c3 65 8 134 15 206l26 269h133l25 -269c7 -72 13 -141 15 -206c2 65 9 134 16 206l27 269h125l-82 -700h-163l-20 208c-5 56 -11 121 -13 179c-2 -58 -8 -123 -13 -179zM233 721l51 119h107l-81 -119
h-77z" />
    <glyph glyph-name="wacute" unicode="&#x1e83;" horiz-adv-x="521" 
d="M250 104l-10 -104h-168l-70 552h129l14 -118c12 -103 16 -206 20 -282c5 76 13 179 25 281l14 119h128l15 -119c13 -102 20 -205 24 -281c4 76 5 179 18 282l15 118h115l-70 -552h-158l-10 104c-6 58 -14 123 -16 180c-3 -57 -9 -122 -15 -180zM207 579l51 119h107
l-81 -119h-77z" />
    <glyph glyph-name="Wdieresis" unicode="&#x1e84;" horiz-adv-x="573" 
d="M278 208l-20 -208h-170l-83 700h141l26 -269c7 -72 13 -141 15 -206c3 65 8 134 15 206l26 269h133l25 -269c7 -72 13 -141 15 -206c2 65 9 134 16 206l27 269h125l-82 -700h-163l-20 208c-5 56 -11 121 -13 179c-2 -58 -8 -123 -13 -179zM410 728h-107v105h107v-105z
M268 728h-107v105h107v-105z" />
    <glyph glyph-name="wdieresis" unicode="&#x1e85;" horiz-adv-x="521" 
d="M250 104l-10 -104h-168l-70 552h129l14 -118c12 -103 16 -206 20 -282c5 76 13 179 25 281l14 119h128l15 -119c13 -102 20 -205 24 -281c4 76 5 179 18 282l15 118h115l-70 -552h-158l-10 104c-6 58 -14 123 -16 180c-3 -57 -9 -122 -15 -180zM383 586h-107v105h107
v-105zM241 586h-107v105h107v-105z" />
    <glyph glyph-name="Ygrave" unicode="&#x1ef2;" horiz-adv-x="364" 
d="M252 0h-140v209l-110 491h141l21 -110c9 -48 19 -125 26 -209c7 84 17 161 26 209l21 110h126l-111 -491v-209zM189 840l51 -119h-77l-82 119h108z" />
    <glyph glyph-name="ygrave" unicode="&#x1ef3;" horiz-adv-x="330" 
d="M240 -30c-8 -60 -44 -97 -116 -97h-109v94h49c16 0 20 7 20 22v20l-82 543h129l18 -138c10 -77 19 -198 23 -270c4 72 12 193 23 270l19 138h114zM172 698l51 -119h-77l-82 119h108z" />
    <glyph glyph-name="figuredash" unicode="&#x2012;" 
d="M358 316v-95h-358v95h358z" />
    <glyph glyph-name="endash" unicode="&#x2013;" horiz-adv-x="500" 
d="M500 316v-95h-500v95h500z" />
    <glyph glyph-name="emdash" unicode="&#x2014;" horiz-adv-x="1000" 
d="M1000 316v-95h-1000v95h1000z" />
    <glyph glyph-name="quoteleft" unicode="&#x2018;" horiz-adv-x="179" 
d="M160 598v-171h-142v171l124 102l7 -7l-79 -95h90z" />
    <glyph glyph-name="quoteright" unicode="&#x2019;" horiz-adv-x="179" 
d="M18 529v171h142v-171l-124 -102l-7 7l79 95h-90z" />
    <glyph glyph-name="quotesinglbase" unicode="&#x201a;" horiz-adv-x="179" 
d="M18 0v171h142v-171l-124 -102l-7 7l79 95h-90z" />
    <glyph glyph-name="quotedblleft" unicode="&#x201c;" horiz-adv-x="336" 
d="M322 598v-171h-142v171l124 102l7 -7l-79 -95h90zM155 598v-171h-142v171l124 102l7 -7l-79 -95h90z" />
    <glyph glyph-name="quotedblright" unicode="&#x201d;" horiz-adv-x="336" 
d="M180 529v171h142v-171l-124 -102l-7 7l79 95h-90zM13 529v171h142v-171l-124 -102l-7 7l79 95h-90z" />
    <glyph glyph-name="quotedblbase" unicode="&#x201e;" horiz-adv-x="336" 
d="M180 0v171h142v-171l-124 -102l-7 7l79 95h-90zM13 0v171h142v-171l-124 -102l-7 7l79 95h-90z" />
    <glyph glyph-name="dagger" unicode="&#x2020;" horiz-adv-x="366" 
d="M246 425v-522h-126v522h-118v114h118v161h126v-161h118v-114h-118z" />
    <glyph glyph-name="daggerdbl" unicode="&#x2021;" horiz-adv-x="366" 
d="M246 101v-198h-126v198h-118v114h118v210h-118v114h118v161h126v-161h118v-114h-118v-210h118v-114h-118z" />
    <glyph glyph-name="bullet" unicode="&#x2022;" horiz-adv-x="304" 
d="M24 350c0 79 48 136 127 136s129 -57 129 -136c0 -77 -50 -135 -129 -135s-127 58 -127 135z" />
    <glyph glyph-name="ellipsis" unicode="&#x2026;" horiz-adv-x="503" 
d="M13 0v171h142v-171h-142zM180 0v171h142v-171h-142zM347 0v171h142v-171h-142z" />
    <glyph glyph-name="perthousand" unicode="&#x2030;" horiz-adv-x="873" 
d="M161 0l251 700h34l-251 -700h-34zM17 356v243c0 82 22 106 97 106h43c73 0 97 -24 97 -106v-243c0 -82 -24 -106 -97 -106h-43c-75 0 -97 24 -97 106zM111 584v-212c0 -24 2 -32 21 -32h6c19 0 22 8 22 32v212c0 23 -3 32 -22 32h-6c-19 0 -21 -9 -21 -32zM354 101v243
c0 82 22 106 97 106h43c73 0 97 -24 97 -106v-243c0 -82 -24 -106 -97 -106h-43c-75 0 -97 24 -97 106zM448 329v-212c0 -24 2 -32 21 -32h6c19 0 22 8 22 32v212c0 23 -3 32 -22 32h-6c-19 0 -21 -9 -21 -32zM620 101v243c0 82 22 106 97 106h43c73 0 97 -24 97 -106v-243
c0 -82 -24 -106 -97 -106h-43c-75 0 -97 24 -97 106zM714 329v-212c0 -24 2 -32 21 -32h6c19 0 22 8 22 32v212c0 23 -3 32 -22 32h-6c-19 0 -21 -9 -21 -32z" />
    <glyph glyph-name="guilsinglleft" unicode="&#x2039;" horiz-adv-x="217" 
d="M101 76l-99 200l99 200h114l-87 -200l87 -200h-114z" />
    <glyph glyph-name="guilsinglright" unicode="&#x203a;" horiz-adv-x="217" 
d="M215 276l-99 -200h-114l87 200l-87 200h114z" />
    <glyph glyph-name="fraction" unicode="&#x2044;" 
d="M37 0l251 700h34l-251 -700h-34z" />
    <glyph glyph-name="zerosuperior" unicode="&#x2070;" horiz-adv-x="270" 
d="M17 356v243c0 82 22 106 97 106h43c73 0 97 -24 97 -106v-243c0 -82 -24 -106 -97 -106h-43c-75 0 -97 24 -97 106zM111 584v-212c0 -24 2 -32 21 -32h6c19 0 22 8 22 32v212c0 23 -3 32 -22 32h-6c-19 0 -21 -9 -21 -32z" />
    <glyph glyph-name="foursuperior" unicode="&#x2074;" horiz-adv-x="270" 
d="M132 700h99v-287h28v-80h-28v-78h-94v78h-126v73zM95 413h42v33c0 31 2 72 6 118c-13 -46 -24 -85 -36 -118z" />
    <glyph glyph-name="zeroinferior" unicode="&#x2080;" horiz-adv-x="270" 
d="M17 101v243c0 82 22 106 97 106h43c73 0 97 -24 97 -106v-243c0 -82 -24 -106 -97 -106h-43c-75 0 -97 24 -97 106zM111 329v-212c0 -24 2 -32 21 -32h6c19 0 22 8 22 32v212c0 23 -3 32 -22 32h-6c-19 0 -21 -9 -21 -32z" />
    <glyph glyph-name="oneinferior" unicode="&#x2081;" horiz-adv-x="149" 
d="M122 0h-94v398c23 0 51 27 51 47h43v-445z" />
    <glyph glyph-name="twoinferior" unicode="&#x2082;" horiz-adv-x="270" 
d="M112 329v-56h-88v71c0 82 22 106 96 106h38c74 0 97 -24 97 -106v-30c0 -95 -51 -116 -92 -146c-37 -26 -55 -37 -55 -76v-3h144v-89h-237v94c0 71 33 104 81 134c49 31 65 47 65 94v7c0 23 -3 32 -22 32h-6c-19 0 -21 -9 -21 -32z" />
    <glyph glyph-name="threeinferior" unicode="&#x2083;" horiz-adv-x="270" 
d="M157 117v30c0 24 -2 32 -21 32h-69v89h69c19 0 21 9 21 32v29c0 23 -2 32 -21 32h-7c-18 0 -21 -9 -21 -32v-19h-89v34c0 82 22 106 97 106h38c73 0 97 -24 97 -106v-19c0 -63 -14 -92 -53 -102c39 -10 53 -39 53 -101v-21c0 -82 -24 -106 -97 -106h-38
c-75 0 -97 24 -97 106v34h89v-18c0 -24 3 -32 21 -32h7c19 0 21 8 21 32z" />
    <glyph glyph-name="fourinferior" unicode="&#x2084;" horiz-adv-x="270" 
d="M132 445h99v-287h28v-80h-28v-78h-94v78h-126v73zM95 158h42v33c0 31 2 72 6 118c-13 -46 -24 -85 -36 -118z" />
    <glyph glyph-name="Euro" unicode="&#x20ac;" 
d="M337 396h-180v-55h180v-38h-180v-148c0 -27 2 -37 24 -37h9c22 0 25 10 25 37v92h122v-108c0 -112 -26 -144 -128 -144h-54c-101 0 -128 32 -128 144v164h-24v38h24v55h-24v37h24v128c0 112 27 144 128 144h54c102 0 128 -32 128 -144v-72h-122v56c0 27 -3 37 -25 37h-9
c-22 0 -24 -10 -24 -37v-112h180v-37z" />
    <glyph glyph-name="numero" unicode="&#x2116;" horiz-adv-x="661" 
d="M222 0l-57 271c-10 49 -17 95 -23 144c1 -50 3 -95 3 -144v-271h-120v700h168l45 -237c9 -48 14 -95 20 -144c-1 50 -3 96 -3 144v237h121v-700h-154zM413 191v86h231v-86h-231zM413 412v190c0 80 19 103 93 103h46c73 0 92 -23 92 -103v-190c0 -80 -19 -104 -92 -104
h-46c-74 0 -93 24 -93 104zM552 424v165c0 22 -3 30 -20 30h-7c-16 0 -19 -8 -19 -30v-165c0 -21 3 -30 19 -30h7c17 0 20 9 20 30z" />
    <glyph glyph-name="uni2117" unicode="&#x2117;" horiz-adv-x="581" 
d="M553 437v-174c0 -180 -51 -268 -247 -268h-31c-196 0 -246 88 -246 268v174c0 180 50 268 246 268h31c196 0 247 -88 247 -268zM104 437v-174c0 -150 40 -199 172 -199h30c132 0 171 49 171 199v174c0 150 -39 199 -171 199h-30c-132 0 -172 -49 -172 -199zM408 462v-80
c0 -75 -19 -96 -87 -96h-45v-158h-84v431h129c68 0 87 -21 87 -97zM303 481h-27v-117h27c17 0 22 7 22 31v54c0 24 -5 32 -22 32z" />
    <glyph glyph-name="trademark" unicode="&#x2122;" horiz-adv-x="559" 
d="M382 523l27 177h130v-414h-88v171c0 41 1 84 4 122c-7 -39 -13 -83 -19 -122l-28 -171h-74l-29 171c-6 41 -13 85 -20 126c3 -41 5 -85 5 -126v-171h-74v414h124l26 -177c4 -27 6 -65 8 -95c2 30 4 66 8 95zM2 626v74h192v-74h-52v-340h-88v340h-52z" />
    <glyph glyph-name="uni2126" unicode="&#x2126;" horiz-adv-x="382" 
d="M19 0v131h65v51c-52 12 -65 48 -65 135v233c0 120 29 155 139 155h66c110 0 138 -35 138 -155v-233c0 -88 -13 -124 -65 -136v-50h65v-131h-152v279c11 0 13 4 13 18v236c0 30 -3 40 -26 40h-12c-24 0 -26 -10 -26 -40v-236c0 -15 0 -18 12 -18v-279h-152z" />
    <glyph glyph-name="onethird" unicode="&#x2153;" horiz-adv-x="504" 
d="M59 0l251 700h34l-251 -700h-34zM122 255h-94v398c23 0 51 27 51 47h43v-445zM391 117v30c0 24 -2 32 -21 32h-69v89h69c19 0 21 9 21 32v29c0 23 -2 32 -21 32h-7c-18 0 -21 -9 -21 -32v-19h-89v34c0 82 22 106 97 106h38c73 0 97 -24 97 -106v-19
c0 -63 -14 -92 -53 -102c39 -10 53 -39 53 -101v-21c0 -82 -24 -106 -97 -106h-38c-75 0 -97 24 -97 106v34h89v-18c0 -24 3 -32 21 -32h7c19 0 21 8 21 32z" />
    <glyph glyph-name="twothirds" unicode="&#x2154;" horiz-adv-x="607" 
d="M161 0l251 700h34l-251 -700h-34zM112 584v-56h-88v71c0 82 22 106 96 106h38c74 0 97 -24 97 -106v-30c0 -95 -51 -116 -92 -146c-37 -26 -55 -37 -55 -76v-3h144v-89h-237v94c0 71 33 104 81 134c49 31 65 47 65 94v7c0 23 -3 32 -22 32h-6c-19 0 -21 -9 -21 -32z
M494 117v30c0 24 -2 32 -21 32h-69v89h69c19 0 21 9 21 32v29c0 23 -2 32 -21 32h-7c-18 0 -21 -9 -21 -32v-19h-89v34c0 82 22 106 97 106h38c73 0 97 -24 97 -106v-19c0 -63 -14 -92 -53 -102c39 -10 53 -39 53 -101v-21c0 -82 -24 -106 -97 -106h-38
c-75 0 -97 24 -97 106v34h89v-18c0 -24 3 -32 21 -32h7c19 0 21 8 21 32z" />
    <glyph glyph-name="partialdiff" unicode="&#x2202;" 
d="M333 561v-428c0 -107 -26 -138 -124 -138h-59c-99 0 -125 31 -125 138v321c0 74 18 103 79 103h23c48 0 72 -22 82 -60v63c0 29 -6 42 -28 42h-28v98h55c98 0 125 -33 125 -139zM151 147c0 -26 4 -36 24 -36h8c20 0 24 10 24 36v255c0 26 -6 39 -25 39h-8
c-19 0 -23 -10 -23 -35v-259z" />
    <glyph glyph-name="uni2206" unicode="&#x2206;" 
d="M354 0h-349l140 699h71zM157 456c-5 -53 -14 -119 -31 -215l-29 -165h120l-29 166c-17 95 -26 161 -31 214z" />
    <glyph glyph-name="product" unicode="&#x220f;" horiz-adv-x="395" 
d="M166 -70h-140v770h343v-770h-140v638h-63v-638z" />
    <glyph glyph-name="summation" unicode="&#x2211;" horiz-adv-x="342" 
d="M287 314l-127 -252h171v-132h-320v121l132 263l-132 265v121h320v-132h-172z" />
    <glyph glyph-name="minus" unicode="&#x2212;" 
d="M338 406v-112h-318v112h318z" />
    <glyph glyph-name="radical" unicode="&#x221a;" 
d="M208 488l25 212h117l-91 -700h-172l-35 257h-31v111h123l32 -285c10 135 16 270 32 405z" />
    <glyph glyph-name="infinity" unicode="&#x221e;" horiz-adv-x="733" 
d="M345 317c-21 0 -29 25 -38 25c-7 0 -14 -4 -25 -4s-21 14 -21 25c0 12 3 27 8 35c-18 -18 -11 -58 -42 -78c-18 -12 -18 -25 -18 -40c0 -19 22 -27 22 -34c0 -3 -1 -4 -3 -4c-4 0 -9 2 -12 5c8 -41 24 -79 48 -104h-55c-15 49 -35 140 -35 226c0 122 38 238 176 238
c153 0 190 -126 190 -254c0 -78 -15 -156 -25 -210h-73c37 33 56 72 62 117c-1 -2 -9 -8 -13 -8c-1 0 -3 0 -3 2c0 3 18 7 18 37c-3 -4 -13 -6 -15 -6c-4 0 -15 -9 -26 -9c-38 0 -32 7 -110 7c-39 0 -71 -12 -91 -12c-9 0 -17 4 -24 4c-6 0 -28 3 -28 12c0 13 62 27 111 27
c10 0 14 -1 24 -1s21 4 30 4c67 0 118 -8 127 -20c-1 20 -21 42 -44 42c-4 0 -6 3 -6 7c0 36 -3 57 -16 58c3 -5 4 -10 4 -17c0 -22 -15 -46 -38 -46c-7 0 -15 4 -17 4c-6 0 -19 -28 -42 -28zM733 291v-148c-25 55 -107 177 -136 177c4 -59 0 -115 -12 -177h-42
c8 52 16 123 16 199c0 155 -39 319 -213 319c-148 0 -190 -159 -190 -308c0 -85 14 -165 29 -210h-47c-17 60 -19 120 -19 184c-38 -21 -95 -144 -119 -184v148c25 61 92 113 113 136c6 135 77 287 223 287c187 0 238 -135 257 -279c24 -5 102 -65 140 -144zM345 503
c-1 1 -3 4 -3 6c0 1 1 2 2 2c3 0 15 -17 43 -17c36 0 52 17 55 17c2 0 4 -1 4 -2c0 -2 -7 -7 -8 -8c12 0 34 -4 52 -11c-18 49 -56 80 -139 80c-77 0 -126 -53 -142 -118c17 9 38 24 41 39c-3 2 -6 6 -6 7c0 3 2 4 3 4s17 -16 49 -16c16 0 34 7 49 17zM371 416
c0 25 -7 60 -14 60c-18 0 -22 -78 -33 -78c-6 0 -12 6 -21 6c-18 0 -29 -17 -29 -35c0 -7 4 -14 11 -14c19 0 20 13 27 13c6 0 14 -27 32 -27c24 0 30 21 37 21c6 0 14 -7 19 -7c14 0 26 18 26 35c0 12 -7 26 -22 26c-13 0 -17 -13 -26 -13c-6 0 -7 8 -7 13zM510 318
c0 48 -1 99 -12 147l-5 3c0 -31 -32 -43 -59 -43c-28 0 -53 19 -53 42c0 3 0 6 2 9c-5 1 -11 2 -15 4c15 -22 13 -57 20 -57c7 2 11 2 15 2c13 0 23 -5 31 -14c30 0 34 -37 34 -51c0 -8 31 -12 42 -42zM383 310c-2 0 -26 -4 -37 -4c-9 0 -17 3 -24 3c-33 0 -85 -16 -85 -21
c0 -10 14 -10 20 -10c45 0 66 13 98 13c36 0 80 -7 110 -7c10 0 20 7 20 9c0 7 -62 17 -102 17zM267 413c-26 0 -44 17 -46 31c-5 -3 -11 -4 -15 -5c-3 -16 -4 -30 -4 -43c0 -26 0 -50 3 -78c14 21 38 27 42 53c3 23 14 38 38 41c7 3 15 5 23 5c12 0 10 32 34 61l-13 -4
c-1 -30 -26 -61 -62 -61zM419 465c-11 0 -15 8 -16 13c-8 0 -12 -11 -12 -15c0 -15 27 -24 46 -24c17 0 44 12 44 30c0 11 -27 17 -43 17c-2 -9 -7 -21 -19 -21zM267 427c18 0 46 17 46 35c0 3 0 6 -1 9c-15 0 -20 0 -27 1c-3 -9 -11 -14 -18 -14c-5 0 -10 0 -15 5
c-5 -5 -11 -8 -18 -12c3 -16 18 -24 33 -24zM266 288c-1 0 -2 1 -2 3c0 9 83 12 107 12c20 0 93 -2 93 -8c0 -2 -2 -3 -3 -3c-3 0 -24 5 -88 5c-81 0 -101 -9 -107 -9zM305 262c0 9 50 10 63 10c1 0 31 0 31 -8c0 -2 -1 -3 -2 -3c-8 0 -12 4 -20 4c-19 0 -35 -1 -46 -1
c-8 0 -16 -6 -22 -6c-2 0 -4 1 -4 4zM417 473c5 0 9 4 9 13c-5 0 -11 -4 -16 -6c0 -5 3 -7 7 -7zM266 466c4 0 8 3 10 9c-4 1 -7 2 -11 4c0 -2 -2 -6 -6 -10c1 -2 4 -3 7 -3zM325 34l-3 48l-10 -82h-21l15 125h25l4 -60l21 60h26l-15 -125h-22l10 82l-16 -48h-14zM21 125h35
c12 0 22 -7 20 -21l-10 -82c-2 -15 -10 -22 -22 -22h-38zM282 44c-1 -8 -5 -14 -10 -17l8 -27h-21l-7 23h-7l-3 -23h-22l15 125h36c12 0 20 -7 18 -24zM183 0l3 23h-14l-3 -23h-21l12 104c1 14 10 21 22 21h17c12 0 19 -7 18 -21l-12 -104h-22zM594 0l15 125h35
c14 0 22 -7 20 -21l-8 -62c-2 -14 -10 -19 -22 -19h-15l-3 -23h-22zM111 0l3 23h-13l-3 -23h-22l15 125h22l-10 -83h13l10 83h22l-15 -125h-22zM539 125h22l-10 -79c0 -3 0 -4 4 -4h5c3 0 5 1 5 4l9 79h22l-10 -81c-2 -13 -9 -21 -19 -21l-9 -23h-23l9 23
c-11 0 -17 8 -15 21zM477 106l3 19h50l-3 -19h-13l-12 -106h-23l12 106h-14zM41 106l-11 -88h11c2 0 3 2 3 4l9 80c0 3 -1 4 -4 4h-8zM629 106l-8 -64h8c3 0 5 1 5 4l7 56c0 3 -1 4 -4 4h-8zM174 42h14l7 60c0 3 -1 4 -4 4h-5c-4 0 -5 -1 -5 -4zM255 106l-8 -64h8
c3 0 5 1 5 4l7 56c0 2 0 4 -3 4h-9zM711 57l-3 -18h-19l-3 -21h27l-2 -18h-49l15 125h47l-3 -19h-24l-6 -49h20zM417 0l3 23h-14l-3 -23h-21l12 104c1 14 10 21 22 21h17c12 0 19 -7 18 -21l-12 -104h-22zM408 42h14l7 60c0 3 -1 4 -4 4h-5c-4 0 -5 -1 -5 -4z" />
    <glyph glyph-name="integral" unicode="&#x222b;" 
d="M116 74v488c0 107 26 138 124 138h55v-105h-25c-21 0 -28 -8 -28 -39v-487c0 -108 -26 -139 -124 -139h-55v106h25c21 0 28 7 28 38z" />
    <glyph glyph-name="approxequal" unicode="&#x2248;" 
d="M338 335v-114c-28 -37 -57 -49 -85 -49c-54 0 -108 43 -159 43c-26 0 -51 -11 -74 -44v113c28 37 56 49 85 49c53 0 107 -43 158 -43c26 0 51 12 75 45zM338 529v-114c-28 -37 -57 -49 -85 -49c-54 0 -108 43 -159 43c-26 0 -51 -11 -74 -44v113c28 37 56 49 85 49
c53 0 107 -43 158 -43c26 0 51 12 75 45z" />
    <glyph glyph-name="notequal" unicode="&#x2260;" 
d="M338 312v-113h-179l-39 -98h-79l38 98h-59v113h104l30 77h-134v112h179l38 96h80l-38 -96h59v-112h-104l-30 -77h134z" />
    <glyph glyph-name="lessequal" unicode="&#x2264;" 
d="M338 217v-102h-318v102h318zM163 414l175 -162h-145l-173 162l173 162h145z" />
    <glyph glyph-name="greaterequal" unicode="&#x2265;" 
d="M20 115v102h318v-102h-318zM20 252l175 162l-175 162h145l173 -162l-173 -162h-145z" />
    <glyph glyph-name="lozenge" unicode="&#x25ca;" 
d="M221 0h-84l-133 349l132 351h85l132 -351zM109 349l24 -63c24 -63 37 -110 46 -148c8 38 22 85 45 148l23 63l-24 64c-23 62 -37 109 -45 147c-8 -38 -24 -85 -46 -147z" />
    <glyph glyph-name="g.alt" horiz-adv-x="350" 
d="M146 159c0 -25 3 -35 23 -35h7c19 0 26 14 26 40v238c0 26 -7 39 -26 39h-7c-20 0 -23 -10 -23 -35v-247zM202 -34v96c-11 -34 -35 -54 -81 -54h-22c-61 0 -79 29 -79 103v343c0 74 18 103 79 103h22c50 0 74 -24 84 -64l10 59h113v-546c0 -107 -27 -138 -125 -138h-54
c-98 0 -123 22 -123 107v10h120v-20c0 -25 3 -34 24 -34h8c21 0 24 9 24 35z" />
    <glyph glyph-name="i.trk" horiz-adv-x="172" 
d="M149 552v-552h-126v552h126zM23 596v104h126v-104h-126z" />
    <glyph glyph-name="r.alt" horiz-adv-x="334" 
d="M149 0h-126v552h120v-75c7 50 29 80 86 80h13c61 0 79 -29 79 -103v-202h-119v154c0 25 -3 35 -22 35h-6c-19 0 -25 -13 -25 -39v-402z" />
    <glyph glyph-name="y.alt" horiz-adv-x="352" 
d="M203 -34v95c-11 -34 -35 -53 -80 -53h-23c-61 0 -78 29 -78 103v441h126v-393c0 -25 3 -35 22 -35h8c19 0 25 14 25 40v388h126v-546c0 -107 -26 -138 -124 -138h-54c-98 0 -123 22 -123 107v10h120v-20c0 -25 3 -34 23 -34h9c21 0 23 9 23 35z" />
    <glyph glyph-name="zero.alt" 
d="M338 561v-422c0 -112 -27 -144 -128 -144h-62c-102 0 -128 32 -128 144v422c0 112 26 144 128 144h62c101 0 128 -32 128 -144zM150 545v-390c0 -27 3 -37 25 -37h8c23 0 25 10 25 37v390c0 27 -2 37 -25 37h-8c-22 0 -25 -10 -25 -37z" />
    <glyph glyph-name="one.alt" 
d="M261 0h-130v635c31 0 69 37 69 65h61v-700z" />
    <glyph glyph-name="two.alt" 
d="M211 533v12c0 27 -2 37 -25 37h-8c-22 0 -25 -10 -25 -37v-94h-123v110c0 112 26 144 129 144h54c102 0 128 -32 128 -144v-36c0 -107 -28 -149 -111 -243c-55 -62 -79 -94 -83 -160h192v-122h-322v112c0 107 28 149 112 242c60 68 82 100 82 179z" />
    <glyph glyph-name="three.alt" 
d="M146 545v-70h-122v86c0 112 26 144 128 144h54c101 0 129 -32 129 -144v-58c0 -81 -15 -120 -62 -135c47 -16 62 -55 62 -135v-94c0 -112 -28 -144 -129 -144h-54c-102 0 -128 32 -128 144v122h122v-106c0 -27 3 -37 25 -37h9c22 0 25 10 25 37v115c0 27 -3 36 -25 36
h-100v124h100c22 0 25 10 25 36v79c0 27 -3 37 -25 37h-9c-22 0 -25 -10 -25 -37z" />
    <glyph glyph-name="four.alt" 
d="M169 700h138v-481h43v-109h-43v-110h-130v110h-166v98zM121 219h56v80c0 60 4 126 10 199c-15 -72 -24 -126 -44 -199z" />
    <glyph glyph-name="five.alt" 
d="M148 364v-58h-122v394h295v-122h-173v-114c10 39 34 62 85 62h25c63 0 79 -31 79 -108v-279c0 -112 -28 -144 -129 -144h-54c-102 0 -128 32 -128 144v122h122v-106c0 -27 3 -37 25 -37h9c22 0 25 10 25 37v214c0 26 -3 36 -24 36h-8c-21 0 -27 -14 -27 -41z" />
    <glyph glyph-name="six.alt" 
d="M339 353v-214c0 -112 -26 -144 -128 -144h-62c-102 0 -128 32 -128 144v422c0 112 27 144 128 144h54c103 0 129 -32 129 -144v-69h-123v53c0 27 -2 37 -25 37h-8c-22 0 -25 -10 -25 -37v-145c11 38 35 60 84 60h26c63 0 78 -30 78 -107zM209 155v147c0 26 -2 37 -23 37
h-8c-21 0 -27 -14 -27 -42v-142c0 -27 3 -37 25 -37h8c23 0 25 10 25 37z" />
    <glyph glyph-name="seven.alt" 
d="M197 0h-144l166 578h-201v122h321v-110z" />
    <glyph glyph-name="eight.alt" 
d="M210 -5h-62c-101 0 -128 32 -128 144v96c0 80 13 120 60 135c-47 16 -60 55 -60 136v55c0 112 27 144 128 144h62c101 0 128 -32 128 -144v-55c0 -81 -14 -120 -61 -136c47 -15 61 -55 61 -135v-96c0 -112 -27 -144 -128 -144zM208 155v118c0 27 -3 36 -25 36h-8
c-23 0 -25 -9 -25 -36v-118c0 -27 2 -37 25 -37h8c22 0 25 10 25 37zM208 469v76c0 27 -3 37 -25 37h-8c-23 0 -25 -10 -25 -37v-76c0 -26 2 -36 25 -36h8c22 0 25 10 25 36z" />
    <glyph glyph-name="nine.alt" 
d="M182 118c22 0 25 10 25 37v155c-11 -38 -35 -60 -84 -60h-26c-63 0 -78 30 -78 107v204c0 112 26 144 128 144h62c102 0 128 -32 128 -144v-422c0 -112 -27 -144 -128 -144h-54c-103 0 -129 32 -129 144v79h123v-63c0 -27 2 -37 25 -37h8zM149 545v-137
c0 -26 2 -37 23 -37h8c21 0 27 14 27 42v132c0 27 -3 37 -25 37h-8c-23 0 -25 -10 -25 -37z" />
    <glyph glyph-name="gbreve.alt" horiz-adv-x="350" 
d="M146 159c0 -25 3 -35 23 -35h7c19 0 26 14 26 40v238c0 26 -7 39 -26 39h-7c-20 0 -23 -10 -23 -35v-247zM202 -34v96c-11 -34 -35 -54 -81 -54h-22c-61 0 -79 29 -79 103v343c0 74 18 103 79 103h22c50 0 74 -24 84 -64l10 59h113v-546c0 -107 -27 -138 -125 -138h-54
c-98 0 -123 22 -123 107v10h120v-20c0 -25 3 -34 24 -34h8c21 0 24 9 24 35zM174 648c36 0 44 12 44 47h65c0 -67 -10 -117 -109 -117s-109 50 -109 117h65c0 -35 8 -47 44 -47z" />
    <glyph glyph-name="gcircumflex.alt" horiz-adv-x="350" 
d="M146 159c0 -25 3 -35 23 -35h7c19 0 26 14 26 40v238c0 26 -7 39 -26 39h-7c-20 0 -23 -10 -23 -35v-247zM202 -34v96c-11 -34 -35 -54 -81 -54h-22c-61 0 -79 29 -79 103v343c0 74 18 103 79 103h22c50 0 74 -24 84 -64l10 59h113v-546c0 -107 -27 -138 -125 -138h-54
c-98 0 -123 22 -123 107v10h120v-20c0 -25 3 -34 24 -34h8c21 0 24 9 24 35zM218 698l69 -119h-78l-35 52l-35 -52h-78l69 119h88z" />
    <glyph glyph-name="uni0123.alt" horiz-adv-x="350" 
d="M228 691v-105h-107v105l93 77l6 -6l-60 -71h68zM146 159c0 -25 3 -35 23 -35h7c19 0 26 14 26 40v238c0 26 -7 39 -26 39h-7c-20 0 -23 -10 -23 -35v-247zM202 -34v96c-11 -34 -35 -54 -81 -54h-22c-61 0 -79 29 -79 103v343c0 74 18 103 79 103h22c50 0 74 -24 84 -64
l10 59h113v-546c0 -107 -27 -138 -125 -138h-54c-98 0 -123 22 -123 107v10h120v-20c0 -25 3 -34 24 -34h8c21 0 24 9 24 35z" />
    <glyph glyph-name="gdotaccent.alt" horiz-adv-x="350" 
d="M146 159c0 -25 3 -35 23 -35h7c19 0 26 14 26 40v238c0 26 -7 39 -26 39h-7c-20 0 -23 -10 -23 -35v-247zM202 -34v96c-11 -34 -35 -54 -81 -54h-22c-61 0 -79 29 -79 103v343c0 74 18 103 79 103h22c50 0 74 -24 84 -64l10 59h113v-546c0 -107 -27 -138 -125 -138h-54
c-98 0 -123 22 -123 107v10h120v-20c0 -25 3 -34 24 -34h8c21 0 24 9 24 35zM228 586h-108v105h108v-105z" />
    <glyph glyph-name="racute.alt" horiz-adv-x="334" 
d="M117 579l51 119h107l-81 -119h-77zM149 0h-126v552h120v-75c7 50 29 80 86 80h13c61 0 79 -29 79 -103v-202h-119v154c0 25 -3 35 -22 35h-6c-19 0 -25 -13 -25 -39v-402z" />
    <glyph glyph-name="rcaron.alt" horiz-adv-x="334" 
d="M149 0h-126v552h120v-75c7 50 29 80 86 80h13c61 0 79 -29 79 -103v-202h-119v154c0 25 -3 35 -22 35h-6c-19 0 -25 -13 -25 -39v-402zM284 698l-69 -119h-88l-69 119h78l35 -52l35 52h78z" />
    <glyph glyph-name="uni0157.alt" horiz-adv-x="334" 
d="M149 0h-126v552h120v-75c7 50 29 80 86 80h13c61 0 79 -29 79 -103v-202h-119v154c0 25 -3 35 -22 35h-6c-19 0 -25 -13 -25 -39v-402zM32 -141v105h107v-105l-93 -77l-6 6l60 71h-68z" />
    <glyph glyph-name="yacute.alt" horiz-adv-x="352" 
d="M122 579l51 119h107l-81 -119h-77zM203 -34v95c-11 -34 -35 -53 -80 -53h-23c-61 0 -78 29 -78 103v441h126v-393c0 -25 3 -35 22 -35h8c19 0 25 14 25 40v388h126v-546c0 -107 -26 -138 -124 -138h-54c-98 0 -123 22 -123 107v10h120v-20c0 -25 3 -34 23 -34h9
c21 0 23 9 23 35z" />
    <glyph glyph-name="ycircumflex.alt" horiz-adv-x="352" 
d="M220 698l69 -119h-78l-35 52l-35 -52h-78l69 119h88zM203 -34v95c-11 -34 -35 -53 -80 -53h-23c-61 0 -78 29 -78 103v441h126v-393c0 -25 3 -35 22 -35h8c19 0 25 14 25 40v388h126v-546c0 -107 -26 -138 -124 -138h-54c-98 0 -123 22 -123 107v10h120v-20
c0 -25 3 -34 23 -34h9c21 0 23 9 23 35z" />
    <glyph glyph-name="ydieresis.alt" horiz-adv-x="352" 
d="M299 586h-107v105h107v-105zM157 586h-107v105h107v-105zM203 -34v95c-11 -34 -35 -53 -80 -53h-23c-61 0 -78 29 -78 103v441h126v-393c0 -25 3 -35 22 -35h8c19 0 25 14 25 40v388h126v-546c0 -107 -26 -138 -124 -138h-54c-98 0 -123 22 -123 107v10h120v-20
c0 -25 3 -34 23 -34h9c21 0 23 9 23 35z" />
    <glyph glyph-name="ygrave.alt" horiz-adv-x="352" 
d="M178 698l51 -119h-77l-82 119h108zM203 -34v95c-11 -34 -35 -53 -80 -53h-23c-61 0 -78 29 -78 103v441h126v-393c0 -25 3 -35 22 -35h8c19 0 25 14 25 40v388h126v-546c0 -107 -26 -138 -124 -138h-54c-98 0 -123 22 -123 107v10h120v-20c0 -25 3 -34 23 -34h9
c21 0 23 9 23 35z" />
    </font>
</defs>
</svg>
